<svg xmlns="http://www.w3.org/2000/svg" xmlns:xlink="http://www.w3.org/1999/xlink" viewBox="0 0 1466.35 444.74"><defs><style>.a{fill:none;}.b{clip-path:url(#a);}.c{fill:url(#b);}.d{clip-path:url(#c);}.e{fill:url(#d);}.f{fill:#00839b;}.g{clip-path:url(#e);}.h{fill:url(#f);}</style><clipPath id="a" transform="translate(-16.46 -89.64)"><path class="a" d="M99.42,491.89a12.44,12.44,0,0,0,12.45,12.43h0c57.9,0,86.43,1.06,102.14,25a12.44,12.44,0,0,0,20.79-13.66h0c-23.76-36.22-65.36-36.22-122.93-36.22a12.45,12.45,0,0,0-12.45,12.43h0"/></clipPath><linearGradient id="b" x1="-640.03" y1="-1091.71" x2="-635.56" y2="-1091.71" gradientTransform="matrix(0, -5.96, -5.96, 0, -6353.79, -3372.39)" gradientUnits="userSpaceOnUse"><stop offset="0" stop-color="#00839b"/><stop offset="1" stop-color="#1f5369"/></linearGradient><clipPath id="c" transform="translate(-16.46 -89.64)"><path class="a" d="M99.75,441.7a12.51,12.51,0,0,0,12.51,12.49c59.6,0,95.73,2.62,100.14,15.46-1,2.45-4.26,4.87-14.51,6.81-15.78,3-40.68,3-75.14,2.92H112.26a12.5,12.5,0,1,0,0,25h20c30.91,0,53.79-.26,70.23-3.36,16.9-3.19,27.75-10.16,32.53-20.76,1.75-2.14,2.76-9.83,2.69-10.8s-.73-8.31-2.17-10.35c-11.35-29.9-63.72-29.91-123.32-29.91a12.51,12.51,0,0,0-12.51,12.49h0v-.31"/></clipPath><linearGradient id="d" x1="-750.21" y1="-1054.91" x2="-745.7" y2="-1054.91" gradientTransform="matrix(0, -10.37, -10.37, 0, -10787.63, -7376.49)" xlink:href="#b"/><clipPath id="e" transform="translate(-16.46 -89.64)"><path class="a" d="M92.69,230.6c-10,14.36-11.23,34-3.4,55.35,7.36,20.07,25,40.45,38,53.68a12.36,12.36,0,1,0,17.64-17.33c-15.73-16-28-32.61-32.48-44.87-5-13.53-4.81-25.12.46-32.68,3.76-5.39,10.07-8.36,17.74-8.36,5.39,0,12.62,5.06,16.31,11.06a52.79,52.79,0,0,1,12.75-20c-7.44-8.17-17.38-15.77-29.06-15.77-15.76,0-29.61,6.91-38,18.94"/></clipPath><linearGradient id="f" x1="-834.93" y1="-951.22" x2="-830.42" y2="-951.22" gradientTransform="matrix(15.99, -12.94, -12.94, -15.99, 1117.95, -25802.24)" xlink:href="#b"/></defs><path d="M390.27,339.39H361.38v24.36h27.56l.76-10.2h13v23.32H335.2V366.62l9.08-1.76V303.65l-9.08-1.76V291.58h67.38V315H389.45l-.76-10.2H361.38v21.45h28.89Z" transform="translate(-16.46 -89.64)"/><path d="M413.18,366.64l8.26-1.76V325.51H412v-12h9.43v-7q0-10.68,6.15-16.43t17.29-5.77a28.4,28.4,0,0,1,4.42.32c1.5.21,3.16.52,4.95.91l-1.46,12.71c-.94-.15-1.85-.29-2.73-.41a21,21,0,0,0-3.07-.17q-4.17,0-6.3,2.28c-1.42,1.52-2.13,3.7-2.14,6.56v7h12.6v12h-12.6v39.37l8.26,1.76v10.25H413.18Z" transform="translate(-16.46 -89.64)"/><path d="M485.83,378.12q-13.71,0-21.91-8.79T455.72,347v-2.34q0-14.13,7.76-23.27t20.83-9.08q12.84,0,19.92,7.74T511.32,341v9.32H473.47l-.12.35A16.67,16.67,0,0,0,477.54,361q3.72,4,10.11,4a33.34,33.34,0,0,0,9.43-1.14,45.48,45.48,0,0,0,8.21-3.61l4.63,10.55A33.92,33.92,0,0,1,499.75,376,43.26,43.26,0,0,1,485.83,378.12Zm-1.52-52.61a8.89,8.89,0,0,0-7.5,3.63,18.86,18.86,0,0,0-3.4,9.55l.18.29h21v-1.52a13.71,13.71,0,0,0-2.55-8.7Q489.48,325.51,484.31,325.51Z" transform="translate(-16.46 -89.64)"/><path d="M517.59,295.8V285.49h26.19v53h3.81l9.85-13.89-5.57-.76V313.52H583v10.32l-7.5,1.7-11.42,15.7,16,24.08,6.51,1.35v10.25h-29.3V366.67l3.51-.59-9.72-15.7h-7.33v14.53l7.39,1.76v10.25h-32.7V366.67l8.26-1.76V297.59Z" transform="translate(-16.46 -89.64)"/><path d="M617.85,298v15.52h11.09v12H617.85v32.26c0,2.46.5,4.22,1.52,5.27a5.45,5.45,0,0,0,4.1,1.59c1,0,2.06-.05,3.08-.15s2-.29,3-.5L631,376.33a44.1,44.1,0,0,1-5.68,1.31,40.19,40.19,0,0,1-6.1.44q-8.85,0-13.62-4.86t-4.77-15.41V325.47h-9.32v-12h9.32V298Z" transform="translate(-16.46 -89.64)"/><path d="M702.94,323.81l-5.91.88L673.7,386.38a34,34,0,0,1-7.35,11.49q-4.61,4.62-13.86,4.63a24.14,24.14,0,0,1-4.07-.35c-1.27-.24-2.76-.57-4.48-1l2-12.48,1.7.23a12.8,12.8,0,0,0,1.52.12,9.48,9.48,0,0,0,6.57-2.08,13.9,13.9,0,0,0,3.51-5.18l1.94-4.81-20.07-52.2-5.92-.93V313.5h31v10.32L659.1,325l8.68,25.31.88,4.57.35.06L679,325l-7.15-1.17V313.5h31Z" transform="translate(-16.46 -89.64)"/><path d="M798.73,323.81l-6.39.82L779.1,376.89H764.8L753,339.16h-.35l-11.73,37.73H726.7l-13.3-52.26-6.38-.82V313.49h28.71v10.32L729,325.1l6,29h.35l11.83-40.61h11.49l12,40.73H771l5.92-29.07-6.8-1.34V313.49H798.8Z" transform="translate(-16.46 -89.64)"/><path d="M803.65,366.64l8.2-1.76V325.56l-9.08-1.75V313.49h25l.76,9.09a23,23,0,0,1,7.79-7.56,20.16,20.16,0,0,1,10.37-2.7q9.62,0,15,6t5.39,18.92v27.6l8.21,1.76v10.25h-32.7V366.6l7.33-1.76V337.3c0-4.26-.86-7.27-2.58-9s-4.32-2.67-7.79-2.67a13,13,0,0,0-6.1,1.38,12.46,12.46,0,0,0-4.51,3.9v34l6.91,1.76v10.25H803.63Z" transform="translate(-16.46 -89.64)"/><path d="M946.38,323.81l-5.92.88-23.32,61.69a34,34,0,0,1-7.35,11.49q-4.6,4.62-13.86,4.63a24.14,24.14,0,0,1-4.07-.35c-1.27-.24-2.76-.57-4.48-1l2-12.48,1.7.23a12.8,12.8,0,0,0,1.52.12,9.46,9.46,0,0,0,6.56-2.08,13.81,13.81,0,0,0,3.52-5.18l1.93-4.81-20.1-52.2-5.92-.93V313.5h31v10.32L902.5,325l8.68,25.31.87,4.57.36.06,10-29.94-7.15-1.17V313.5h31Z" transform="translate(-16.46 -89.64)"/><path d="M980.72,369.51l6.33-.88,29.82-77.05h9.9l29.3,77.05,6.27.88v7.38h-24.49v-7.38l6.44-1.11-5.62-15.71h-34.16l-5.8,15.71,6.44,1.11v7.38H980.72ZM1008.08,343h27.07l-13.21-36.63h-.35Z" transform="translate(-16.46 -89.64)"/><path d="M1069,292.93v-7.44h21.09v82.38l9.55,1.64v7.38H1069v-7.38l9.55-1.64v-73.3Z" transform="translate(-16.46 -89.64)"/><path d="M1128.55,298.2v15.29h12v8.56h-12v38.49c0,3,.61,5.06,1.85,6.27a6.69,6.69,0,0,0,4.89,1.82,28.13,28.13,0,0,0,3.43-.26c1.26-.18,2.33-.36,3.19-.56l1.58,7.91a14.94,14.94,0,0,1-4.8,1.73,31.28,31.28,0,0,1-6.33.67q-7,0-11.19-4.24T1117,360.54V322.05h-10v-8.56h10V298.2Z" transform="translate(-16.46 -89.64)"/><path d="M1152.34,320.94v-7.45h19.86l1.12,9.2a21.94,21.94,0,0,1,6.65-7.61,15.33,15.33,0,0,1,9-2.76,18.49,18.49,0,0,1,2.78.21,13.82,13.82,0,0,1,2.2.44l-1.52,10.72-6.57-.35a13.12,13.12,0,0,0-7.67,2.14,13.8,13.8,0,0,0-4.81,6v36.39l9.55,1.64v7.38h-30.59v-7.38l9.55-1.64V322.58Z" transform="translate(-16.46 -89.64)"/><path d="M1247.32,367.52a21.42,21.42,0,0,1-7.71,7.85,21.1,21.1,0,0,1-10.87,2.75q-10.31,0-16.11-6.62t-5.8-20.62v-28.3l-7.26-1.64v-7.45h18.8V351q0,10.14,3,14t9.32,3.81a19.12,19.12,0,0,0,10.16-2.49,15.66,15.66,0,0,0,6.07-7.06V322.63l-8.5-1.64v-7.45h20v54.38l7.27,1.64v7.38h-17.64Z" transform="translate(-16.46 -89.64)"/><path d="M1274.86,369.51l9.55-1.64V322.58l-9.55-1.64v-7.45h21.08v54.38l9.55,1.64v7.38h-30.64ZM1296,297.26h-11.54V285.49h11.53Z" transform="translate(-16.46 -89.64)"/><path d="M1329.35,367.87h25.9l.94-9.79h9.75v18.81h-50.3v-8.08l34.28-46.18h-23.21l-.88,9.73H1316V313.49h48v7.86Z" transform="translate(-16.46 -89.64)"/><path d="M1375.52,369.51l9.55-1.64V322.58l-9.55-1.64v-7.45h19.92l.77,8.27a20.52,20.52,0,0,1,7.85-7,24,24,0,0,1,11.13-2.46,19.57,19.57,0,0,1,10.87,2.93,17.76,17.76,0,0,1,6.83,8.79,23.44,23.44,0,0,1,7.91-8.55,20.72,20.72,0,0,1,11.48-3.17q9.72,0,15.35,6.65t5.63,20v28.89l9.55,1.64v7.38H1452.1v-7.38l9.55-1.64v-29q0-9.37-3.22-13.28t-9.55-3.89a12.15,12.15,0,0,0-9.7,4.25,18.42,18.42,0,0,0-4.24,10.69v31.23l9.55,1.64v7.38h-30.65v-7.38l9.55-1.64v-29q0-8.91-3.31-13t-9.58-4.13a15.7,15.7,0,0,0-8.67,2.17,14,14,0,0,0-5.21,6.09v37.91l9.55,1.64v7.38h-30.65Z" transform="translate(-16.46 -89.64)"/><g class="b"><rect class="c" x="83.29" y="389.74" width="139" height="55"/></g><g class="d"><rect class="e" x="83.29" y="339.74" width="137" height="75"/></g><path class="f" d="M159.42,90.23c-77.5,0-140.51,63-140.51,140.47a140.47,140.47,0,0,0,34.17,91.78h0c.11.13,11,13.14,18,39,6.34,23.75,23.34,36.9,47.73,36.9h23c13.52,0,25-2.64,67.09-67.55,7.65-11.8,16.64-30.62,21.82-47.19,8.83-28.25,2.4-45.4-4.55-54.85-8.07-11-21.43-17.54-35.71-17.54-11,0-22.2,7.14-31,15.28A53.25,53.25,0,0,0,146.6,246.7a41.05,41.05,0,0,0-2.37,13.49c0,11,8.66,17.3,14,17.3,7.81,0,14.32-9.69,14.32-17.3a44.16,44.16,0,0,0-2-12.76c4.85-6.4,14.13-11.25,19.89-11.25,2.39,0,10.59.53,15.61,7.37s5.37,18.15.86,32.63c-3.75,12-11.17,28-18.5,40.36-15.94,26.84-31,42.53-39.19,51.5a14.58,14.58,0,0,1-11.74,5.34L119,373.27c-12.94,0-20.24-5.66-23.64-18.36-8.48-31.33-22.18-47.52-23.1-48.6h0a115.08,115.08,0,1,1,202.17-75.2c0,28.74-10.73,59-28,79v.06c-4,4.43-29,34.3-29,88.65,0,15.33-32.58,30.8-105.37,30.8A12.41,12.41,0,0,0,99.64,442a12.59,12.59,0,0,0,.63,3.9,12.26,12.26,0,0,0,11.78,8.44h-.18c113.72,0,130.7-34.95,130.7-55.79,0-47.38,21.76-71.31,22.79-72.42.1-.1.16-.21.25-.31l.13-.13c21.41-24.77,34.18-60.51,34.18-95.61,0-77.47-63-140.47-140.43-140.47" transform="translate(-16.46 -89.64)"/><g class="g"><polygon class="h" points="0 174.61 112.31 83.72 208.28 202.32 95.98 293.21 0 174.61"/></g></svg>