<svg xmlns="http://www.w3.org/2000/svg" viewBox="0 0 278.13 66.81"><defs><style>.cls-1{fill:#52ae32;}.cls-2{fill:#1d1d1b;}</style></defs><title>Element 1</title><g id="Ebene_2" data-name="Ebene 2"><g id="Ebene_1-2" data-name="Ebene 1"><path class="cls-1" d="M25.17,6.76h0l0-.22c0,.07,0,.14,0,.21m2.5-2v0l-.14,0a.26.26,0,0,0,.15,0m.8,1.45,0,.16-.06,0c0-.07,0-.14,0-.2M25.2,9.11V8.89a.55.55,0,0,0,.2,0c0,.06,0,.12.06.18h0a.51.51,0,0,0-.26.08m3.21-3c0-.06,0-.13,0-.19l0,.23,0,0m-.65.14a.17.17,0,0,0,.14.08c0,.07,0,.13,0,.2a.38.38,0,0,0-.2.08c0-.12,0-.25.07-.37m-3.2,2.16.12,0v.31l-.06,0a2.35,2.35,0,0,0-.06-.28m-.56,0h0l.05.24h0l0-.23M19.38,11v0l-.15.05,0,0a.62.62,0,0,0,.16-.07m5.1-5a3.44,3.44,0,0,0-.24,1.48h0a4.48,4.48,0,0,0-.1-.76c-.05-.22-.56-.08-.51.14a4,4,0,0,1,.08.57.56.56,0,0,0-.29.11c0-.05,0-.11,0-.16s-.56,0-.51.14.09.48.17.71l-.07.06a.53.53,0,0,0-.23.08c0-.06,0-.12,0-.19,0-.22-.42-.16-.5,0h-.1l-.05,0c0-.22-.51-.12-.51.06v.39a.87.87,0,0,0,0,.25v.25h0V8.78c0-.06-.29,0-.43,0s0,0,0,0c0-.18-.55-.05-.51.14s0,.32.06.48l-.2,0h0c0-.18-.54-.06-.51.13-.15-.08-.47,0-.44.23s0,.27.07.41c-.15-.06-.4,0-.4.19s0,.32,0,.33a.3.3,0,0,0-.22.12c-.07,0-.12-.08-.2-.1a.35.35,0,0,0-.36.1.16.16,0,0,0,.07.26c.08,0,.13.09.22.11h.12s0,0,0,0,.12.3.22.43.18,0,.3,0,0,.05,0,.08.1,0,.2,0,0,.1,0,.15c0,.25.52.15.52-.05s0-.23,0-.34.25-.09.25-.2,0-.25,0-.37c.14,0,.34-.07.35-.17s.33-.08.33-.16,0-.07,0-.11l.14,0v.05c0,.08.51,0,.51-.14V10.2c.15.08.44,0,.44-.18v0l.1,0h0l.13,0c.11.16.52,0,.49-.2,0,0,0,0,0-.07h0a.52.52,0,0,0,.35-.08.33.33,0,0,0,0,.09c.05.13.33.08.45,0,.09.15.49.05.49-.12V9.35a.38.38,0,0,0,.12-.05c0,.13,0,.25,0,.38s.28.06.42,0c0,.15,0,.3,0,.46s.51,0,.51-.14,0-.47,0-.71l.06,0h0a1.61,1.61,0,0,1,.11.65c0,.13.34.09.47,0A.5.5,0,0,0,26,9.73a.2.2,0,0,1,.07.16c0,.17.52.07.51-.14a.33.33,0,0,0-.13-.25c-.08-.08-.31,0-.42,0s0-.08,0-.12c.16,0,.37-.1.34-.22a2.56,2.56,0,0,1,0-.64.24.24,0,0,0,.14-.1c.15,0,.34-.07.34-.2s0-.08,0-.12a.43.43,0,0,0,.35-.06,13.3,13.3,0,0,0,.23,1.36c0,.11.54,0,.51-.14-.08-.35-.15-.72-.2-1.08.15.06.42,0,.42-.18V7.78a.23.23,0,0,0,.11-.15c.05-.29.09-.59.13-.88a.09.09,0,0,0,0,0V6.67c0,.12,0,.23,0,.35a1.51,1.51,0,0,0,0,.16l0,0a1.08,1.08,0,0,1-.13.5c-.06.11.43.07.51-.08a1.09,1.09,0,0,0,.13-.5A.59.59,0,0,0,29.33,7c.11,0,.21-.08.22-.14a.71.71,0,0,1,0-.09.29.29,0,0,0,.19-.12,1.15,1.15,0,0,0,.06-.18c.11.07.48,0,.48-.18V6c.06,0,.11-.08.11-.13a3,3,0,0,1,.06-.67.13.13,0,0,0,.05-.09s0,0,0-.07a1.15,1.15,0,0,1,.1-.22c.07-.12,0-.16-.19-.15v0c0-.09-.16-.1-.28-.08a2,2,0,0,0,0-.25c0-.16-.56,0-.51.14s0,.12,0,.18l0,0c0-.08,0-.16,0-.24s-.27-.21-.42-.12h0c0-.16-.49-.07-.51.08s0,.08,0,.12c0-.13-.09-.26-.15-.38S27.86,4,28,4.24v0a1,1,0,0,0-.14.17h0c-.25-.08-.37,0-.43.14v0c0-.06-.18-.06-.33,0s0-.11,0-.16c0-.27-.52-.19-.52,0s0,.24,0,.37a.15.15,0,0,0-.09.12c0,.08,0,.16,0,.23a.34.34,0,0,0-.18.07.9.9,0,0,0-.21.29.35.35,0,0,0-.31,0V4.65c0-.08-.51,0-.51.14V6.35a.17.17,0,0,0-.11.16c0-.11,0-.23,0-.34S25,6.09,25,6.09v0c.12-.27-.39-.28-.49-.07"/><path class="cls-1" d="M30.71,4.26c-.17,0-.55.25-.21.25.17,0,.55-.25.21-.25"/><path class="cls-1" d="M30.79,4.56a.53.53,0,0,0,.13.35c.09.12.59-.05.48-.19a.42.42,0,0,1-.09-.3c0-.13-.52,0-.51.14"/><path class="cls-1" d="M8.45,55.16v-.32c0-.16-.27-.14-.42-.05a2.62,2.62,0,0,1,.1-.59c0-.15-.16-.18-.33-.12v-.53c0-.27-.52-.19-.52,0v1c0,.13.12.17.24.16,0,.2,0,.4,0,.6s.29.2.44.09v.35c0,.09.1.13.21.12s.41,0,.41-.18v-.44c0-.07,0-.1-.11-.12"/><path class="cls-1" d="M6.74,53.42v1.52c0,.11.51,0,.51-.14V53.28c0-.11-.51,0-.51.14"/><path class="cls-1" d="M6.2,52.52a.78.78,0,0,0,0-.08.34.34,0,0,0,.1-.06h0v0a.2.2,0,0,0-.1.12m-.55-.84s0,.09,0,.13c0-.2-.07-.39-.1-.59a.4.4,0,0,0,.12-.06c0,.09,0,.18,0,.27s0,.07.12.08l0,0c-.08,0-.14.07-.14.12M3.37,46.35v.21l-.14,0a.19.19,0,0,0,.09-.19s0,0,0-.06h.05m1.31,2.5a4.11,4.11,0,0,0,0,.52,3.5,3.5,0,0,1-.07-.4.09.09,0,0,0,0,0c0-.34,0-.68,0-1,0,.31,0,.62,0,.93m1.67,2.84s0,.05,0,.08l-.08,0,.08-.06m-.56-1.5c-.08,0-.15.1-.13.16l.09.27v.12c0-.07,0-.14-.05-.22a2.29,2.29,0,0,1-.06-.36.51.51,0,0,0,.17-.07v.1m-4.73-10V38.81h0c0,.46.07.91.1,1.36l-.1,0M6.93,52.57c0-.07,0-.14,0-.21s.21-.09.21-.17a1.9,1.9,0,0,1,0-.32.37.37,0,0,0,.4-.12h.1c.21,0,.54-.32.19-.32a.45.45,0,0,0-.27.13V49.84c0-.24-.46-.16-.51,0l-.05,0v0a8.12,8.12,0,0,1,.13-1.12c0-.12-.48,0-.5.09-.12.57-.1,1.15-.18,1.73,0,.2,0,.39-.06.59V49.77a4.51,4.51,0,0,1,.21-1.37c0-.11-.46,0-.5.09s0,.13-.05.2l-.09,0a6.3,6.3,0,0,1,.11-1.21c0-.06-.19-.05-.34,0l0-.08c.06-.21-.46-.13-.52.06l0,.16a1.55,1.55,0,0,0-.1-.48c0-.09-.22-.07-.36,0,0-.32,0-.64,0-1,0-.09-.51,0-.51.14,0,.55,0,1.1-.07,1.65L4.1,48v-.9a6.65,6.65,0,0,0,.11-1.29c0-.1-.19-.1-.33,0V45c0-.11-.26-.09-.41,0a2.34,2.34,0,0,1,.07-.77c.08-.29-.43-.3-.49-.07a2.91,2.91,0,0,0-.09,1l0,0c0-.33,0-.67,0-1,0-.82.06-1.61.09-2.43,0-.24-.51-.15-.52.05s0,.33,0,.5v-.77c0-.22-.45-.14-.5,0,0-.62.06-1.25.07-1.87,0-.18-.25-.18-.4-.1-.06-.78-.14-1.56-.15-2.34,0-.09-.17-.1-.31-.05a4.28,4.28,0,0,1,.09-1.65c.05-.18-.46-.11-.51.06a3.36,3.36,0,0,0-.1.51c0-.17,0-.33,0-.5a.13.13,0,0,0,0-.08,12.85,12.85,0,0,0,0-1.88v-.65c0-.13-.51,0-.51.14v1.22A6.08,6.08,0,0,1,0,36s.05,0,.13,0c.06.63.08,1.26.08,1.88,0,.28.52.2.52,0,0,0,0-.07,0-.11l.05.37c-.12,0-.24.08-.24.16v2.29c0,.06.19.05.34,0a12.64,12.64,0,0,0,.2,2.07c0,.09.22.07.36,0a13.37,13.37,0,0,1,.07,1.45c0,.27.52.2.52,0s0-.32,0-.48.23-.09.23-.16,0-.33,0-.5a.37.37,0,0,0,.18-.09c0,.21,0,.43,0,.65-.15,0-.34.07-.34.19,0,.7-.28,1.63.13,2.26a.16.16,0,0,0,.13.06c0,.1,0,.2,0,.29s.2.17.37.1c0,.33.06.65.07,1,0,.16.19.2.34.15a.4.4,0,0,0,.19,0,4.13,4.13,0,0,0,.13,1.31c0,.07.23,0,.38,0q.06.81.06,1.61c0,.23.51.13.51-.06v-.06l0,0s.13,0,.24,0a7,7,0,0,0,.1,1.1c0,.14.25.13.39.05,0,.27.1.54.15.82,0,.11.31.07.45,0a4.33,4.33,0,0,0,.1.79c0,.08.3,0,.43,0V54c0,.16.51.06.51-.14V52.77c.12,0,.22-.09.22-.2"/><path class="cls-1" d="M8.13,51.15a.31.31,0,0,1,.06-.23c.07-.09.05-.16,0-.2a5.19,5.19,0,0,0,0-.77c0-.25-.52-.16-.52,0a3.66,3.66,0,0,1-.11,1.09.09.09,0,0,0,0,.07.16.16,0,0,0,0,0c0,.28.52.21.52,0"/><path class="cls-1" d="M4.86,17.27v-.09c.06,0,.11-.08.11-.13v-.11c0-.12-.51,0-.51.14v.11h0c-.06,0-.11.06-.11.1v.11c0,.07.51,0,.51-.14"/><path class="cls-1" d="M15.42,6.21v0a.36.36,0,0,0,.38-.08A.63.63,0,0,0,16,5.67a.14.14,0,0,0,0-.09l0,0,0-.1c.08.19.5.11.5-.1v0a.34.34,0,0,0,.31-.15,2.23,2.23,0,0,0,.11-.35.52.52,0,0,0,.43-.11A1.15,1.15,0,0,0,17.48,4c0-.22-.51-.12-.51.06s0,.09,0,.14-.39,0-.44.18-.1.38-.16.56a.37.37,0,0,0-.17,0c0-.06,0-.12.08-.18s-.43-.09-.51.07a6.58,6.58,0,0,0-.27.63c-.09-.12-.48,0-.5.13s-.09.43-.11.65.5.13.51-.06"/><path class="cls-1" d="M18.24,4V4c.14,0,.43-.06.43-.2V3.52c.14,0,.43-.06.44-.18a1.3,1.3,0,0,1,.11-.52c0-.12-.45-.06-.51.08a1.29,1.29,0,0,0-.08.28c-.13,0-.46,0-.46.19v.11c-.14-.07-.44,0-.44.17v.43c0,.24.52.15.52-.05"/><path class="cls-1" d="M20,2.74h0m.6.06v.13s0,0,0,0l0,0c0-.06,0-.12,0-.18m.82-.19s0-.08,0-.12h0s0,.09,0,.13m-1.47.3,0-.09a.88.88,0,0,0,0,.11h0m.13.26h0V3.07h0s0,.07,0,.11m-.89.05c0,.15-.09.29-.11.44s.23.12.39,0a1.78,1.78,0,0,0,0,.34.55.55,0,0,0-.17.05l-.12,0c-.29,0-.39.38,0,.38a.25.25,0,0,0,.26-.21l.07,0c0,.4.08.81.09,1.17s.52.15.52,0,0-.42-.06-.65a.36.36,0,0,0,.19-.06h0c0,.24.52.14.52-.05v0c.15,0,.33-.08.33-.19v-1h.14v.11s.05,0,.12,0,.05.06.15.06.49-.28.24-.32V2.94c.11,0,.2-.07.21-.12s0-.16,0-.24c0,.16,0,.31,0,.46s.51,0,.51-.14,0-.14,0-.21a.74.74,0,0,0,.26-.05c0,.08,0,.16,0,.25,0,.25.51.17.52,0a3.29,3.29,0,0,1,.23-1.2,2.31,2.31,0,0,1-.08.54c-.09.29.42.3.49.07,0-.07,0-.15,0-.22s.4-.07.4-.21V1.36a.47.47,0,0,0,.27,0c.1.07.5,0,.49-.17s-.1-.5-.11-.76-.52,0-.51.14a1.78,1.78,0,0,0,0,.24h0a1.14,1.14,0,0,0-.16.25c0-.1-.28-.08-.42,0a.35.35,0,0,0-.31,0,.42.42,0,0,0-.42.12,3.36,3.36,0,0,0-.35.9,6.17,6.17,0,0,1,0-.77s-.05,0-.12,0V1.22c0-.06-.21,0-.36,0s-.22.08-.23.15,0,.13,0,.19-.39.05-.41.14,0,.13,0,.2a.51.51,0,0,0-.27.1,1.2,1.2,0,0,0-.11.15L21,2.22c-.15,0-.41.07-.41.17v.32s0-.06-.09-.07a1.32,1.32,0,0,1,.06-.14c0-.06-.33,0-.46,0l0,0c0-.07-.44,0-.5.09a2.42,2.42,0,0,0-.2.48c-.12,0-.23.08-.24.16"/><path class="cls-1" d="M25.5,1.05c.12,0,.25-.09.25-.18V.53h0V.33c0-.22-.51-.11-.51.06v.2A1.39,1.39,0,0,0,25,1c0,.19.36.15.48,0"/><path class="cls-1" d="M26.22.91V1s.09,0,.19,0a.29.29,0,0,1,0,.14c0,.11.11.16.22.15v.11c0,.12.51,0,.51-.14V1.05c0-.05-.11-.06-.23,0a.58.58,0,0,0-.12-.32.17.17,0,0,0-.09-.05V.4s-.13,0-.26,0a2.16,2.16,0,0,0,0-.27c0-.2-.5-.1-.51.07s-.09.43-.11.65.18.13.33.08"/><path class="cls-1" d="M27.52,1.42a.19.19,0,0,1-.09.14c-.09.09.06.13.13.13s0,.13.12.13.49-.25.25-.29A.34.34,0,0,0,28,1.27c0-.06-.1-.07-.22-.06h0V.89c0-.27-.52-.19-.52,0v.33c0,.12.1.17.22.17"/><path class="cls-1" d="M22.56,3.87c.17,0,.55-.27.21-.27-.18,0-.55.27-.21.27"/><path class="cls-1" d="M23.49,4.07c-.11,0-.58.21-.33.21s.58-.21.33-.21"/><path class="cls-1" d="M16.29,8.22h0Zm0-.06c0-.22-.51-.12-.51.06v.33a.11.11,0,0,0,0,.06h0c.1.14.49,0,.49-.13V8.42h0a.44.44,0,0,0,.41-.26c0-.12-.29-.09-.44,0"/><path class="cls-1" d="M17.43,6.87h0l-.06,0c.12-.09.18-.22,0-.22s-.44.23-.3.29A.48.48,0,0,0,16.9,7a.8.8,0,0,0-.25.54.11.11,0,0,0,0,.09.24.24,0,0,0-.14.13h0c-.13.1-.15.26.11.23a.42.42,0,0,0,.4-.29.08.08,0,0,0,0-.07.2.2,0,0,0,.12-.15.47.47,0,0,1,.23-.42l0,0c.15-.08.26-.2,0-.2h0"/><path class="cls-1" d="M18.44,6.81a.28.28,0,0,0-.16.05.26.26,0,0,0-.16,0,.29.29,0,0,0-.17.06h-.07c-.19,0-.55.29-.2.29a.44.44,0,0,0,.19-.06c0,.06.09.11.21.11a.28.28,0,0,0,.16,0,.24.24,0,0,0,.17.05c.3,0,.39-.38,0-.38"/><path class="cls-1" d="M25.49,12.13a4.47,4.47,0,0,0,0,.7c0,.08.25.06.39,0,0,.09,0,.18,0,.27,0,.28.54.2.52,0l0-.26a.33.33,0,0,0,.28-.1c.15,0,.35-.08.35-.19s0-.34,0-.51-.17-.11-.31-.06a.57.57,0,0,1,.05-.16c.13-.24-.28-.28-.45-.12-.13-.13-.47,0-.47.15s0,.11,0,.16-.35.08-.35.18"/><path class="cls-1" d="M22,4.69s0,.05,0,.08V4.69h0M19.43,6.24s0,0,0,0c-.08-.18-.5-.09-.5.11a6.91,6.91,0,0,1-.06,1.07.94.94,0,0,0,.05.67c.1.14.32.08.43,0a.17.17,0,0,0,.07-.15.56.56,0,0,0,.41-.15.25.25,0,0,0,0-.1.09.09,0,0,0,0-.08c0-.09,0-.18,0-.27l0,.22c.05.24.56.11.51-.14a.12.12,0,0,0,.06-.09c0-.08,0-.16,0-.24s.25-.08.25-.14,0-.25,0-.38h.06c0,.11,0,.23,0,.34h0v0c0,.25.52.16.52,0s0-.47,0-.71c0,0,0,.07,0,.11s.4,0,.46,0a.16.16,0,0,0,.08-.12.07.07,0,0,0,0-.07s0-.09,0-.14.27-.1.29-.17a1.46,1.46,0,0,0,0-.25.7.7,0,0,0,.36-.17.59.59,0,0,0,0-.33,2.76,2.76,0,0,1,0-.38.38.38,0,0,0,.29-.13.07.07,0,0,0,0-.11.83.83,0,0,1,0-.08A.64.64,0,0,0,23,4.22h0A.44.44,0,0,0,23.33,4c.26,0,.34-.37,0-.37a.24.24,0,0,0-.26.25L23,4a.39.39,0,0,0-.12.11l-.08,0s0,0,0-.06c0-.2-.43-.12-.5,0a.77.77,0,0,0-.11-.22l-.05,0c.17,0,.47-.21.25-.21a.81.81,0,0,0-.4.19l-.11,0v0c.15-.08.27-.23,0-.23a.35.35,0,0,0-.13,0c-.15,0-.42.07-.41.21a3.79,3.79,0,0,0,.06.51c-.1,0-.17.09-.18.16s-.33.07-.33.2c0,.3,0,.61-.06.91a.38.38,0,0,0-.31.17l-.17,0s0-.08,0-.12-.52,0-.51.14,0,.15,0,.23c-.14-.06-.43,0-.43.17"/><path class="cls-1" d="M22.85,4.75v.44c0,.15.51.06.51-.14V4.61c0-.15-.51-.05-.51.14"/><polyline class="cls-1" points="27.67 48.47 27.66 48.48 27.66 48.48 27.67 48.47"/><path class="cls-1" d="M51.13,57.07v.76c0,.26.52.18.52,0V57c0-.26-.52-.18-.52,0"/><path class="cls-1" d="M52.22,43.69V44c0,.25.52.16.52,0v-.33c0-.25-.52-.16-.52,0"/><path class="cls-1" d="M23.69,28.91s0,.09,0,.13c.07.23.58.09.51-.14a3.24,3.24,0,0,1-.11-.93h0v-.54c0-.25-.52-.16-.52,0v.44c-.15,0-.33.07-.33.21v.33c0,.16.18.19.33.15v.18a.13.13,0,0,0,.09.13"/><path class="cls-1" d="M34.54,25.5c-.08-.09-.25,0-.34,0-.3.11-.26.45-.26.72,0,0,0,.07.1.07v.12c0,.19.3.19.44.08v.11a.15.15,0,0,0,.11.15v.12c0,.05.22,0,.37,0a.49.49,0,0,0,.09.17.2.2,0,0,0,.12.06.94.94,0,0,1,.07.33c0,.09.18.09.32,0v.46c0,.17.2.2.35.15H36v.07c0,.24.52.14.52-.05v-.19c.14,0,.44-.06.43-.18a.3.3,0,0,0-.12-.24c-.06-.06-.26,0-.39.05a.29.29,0,0,0-.14,0v-.08c0-.11-.1-.16-.22-.15v-.39c0-.21-.33-.21-.46-.07a.18.18,0,0,0-.12,0,.5.5,0,0,1-.07-.31c0-.16-.18-.2-.33-.15v-.12s0,0-.1,0V26c0-.21-.3-.21-.44-.1v0a.14.14,0,0,0-.09-.13c0-.08.05-.1-.06-.05.06,0,.22-.12.14-.2"/><path class="cls-1" d="M36.52,28.62v-.11c0-.1-.1-.13-.22-.12v0c0-.06-.51,0-.51.14v.33s.21,0,.36,0h0c-.14.08-.23.19,0,.19s.48-.22.27-.26a.16.16,0,0,0,.09-.12"/><path class="cls-1" d="M34.7,29.43v.33c0,.27.52.19.52,0v-.33c0-.27-.52-.19-.52,0"/><path class="cls-1" d="M32.82,28a1.52,1.52,0,0,1,.11-.62c.07-.16-.44-.1-.51.07a1.71,1.71,0,0,0-.11.69c0,.15.51.06.51-.14"/><path class="cls-1" d="M63.46,28.93c0-.07,0-.13,0-.2a.15.15,0,0,0,.15.06v0a.32.32,0,0,0-.12.09m-3.1-.23h0M60,30.15c0,.07,0,.14,0,.21s0,.12,0,.24h0a4.12,4.12,0,0,0,0-.45m-.6,1.29h0M58.3,29.64c0-.41,0-.82,0-1.24,0-.1-.08-.14-.18-.15-.05-1.08.07-2.19.08-3.22a.14.14,0,0,0-.1-.14v-.08c0-.05,0-.1,0-.15s.07-.39.09-.59l0,.26a.12.12,0,0,0,0,.08q.06,1,.1,2c0,.4,0,.79-.06,1.19a.13.13,0,0,0,.1.14c0,.34,0,.67,0,1a.11.11,0,0,0,0,.05v.86m-2.13,1.21h0c0,.06,0,.12,0,.18s0-.12,0-.18m-3.35-2.53c-.07-.1-.28-.09-.41,0a3.28,3.28,0,0,1,.31-1.6c.12-.21-.21-.26-.4-.15a2.13,2.13,0,0,1,.17-.43c.11-.2-.4-.13-.47,0a3.86,3.86,0,0,0-.37,1.41c-.1,0-.19.1-.19.17,0,1.15.09,2.28.18,3.42v0l0-.07c-.08-1.22-.19-2.45-.25-3.68.14,0,.29-.09.29-.19A1.77,1.77,0,0,1,51.92,26c.21-.23-.29-.26-.42-.11a1.23,1.23,0,0,0-.18.27s0-.09,0-.14-.14-.15-.28-.12c0-.4,0-.79,0-1.19,0-.24-.52-.13-.51.06s0,.56,0,.84a.46.46,0,0,0-.2.09,4.88,4.88,0,0,0-.19-1c0-.14-.3-.11-.44,0a4,4,0,0,1,0-2c.09-.28-.42-.26-.49-.05l0,.07c0-.14,0-.28,0-.41s0-.18,0-.27c.15,0,.39-.08.38-.2v-.24c.13,0,.27-.08.28-.15a6.54,6.54,0,0,0,.13-1.31h0v.93c0,.28.52.2.52,0V20.8l.13,0a4.61,4.61,0,0,1-.1.91c0,.09.15.09.31.05a1.1,1.1,0,0,1-.07.12c-.08.09.07.14.14.14a.45.45,0,0,0,.34-.14l.07-.1c0,.08,0,.17,0,.25s.26.09.41,0a.82.82,0,0,0,.28.42.39.39,0,0,0,.41-.08l0,.22c0,.22.54.09.51-.14l-.05-.5a.07.07,0,0,0,0,0s0,0,0-.06v-.11a.69.69,0,0,0,.21-.06,12.83,12.83,0,0,0-.27,2c0,.28.51.2.52,0a6.55,6.55,0,0,1,.06-.72h.07v1.31c0,.1.08.14.18.15v0c0,.12.51,0,.51-.14s0-.16,0-.24l.06.19a9.52,9.52,0,0,0-.09,1.1c0,.17.26.17.41.08v.09c0,.1.09.15.19.15-.06.36-.12.72-.17,1.08,0,.21.28.21.44.09a8.87,8.87,0,0,0,.06,1q0,.33-.09.66a.1.1,0,0,0-.07,0,2.81,2.81,0,0,1-.06-.4.16.16,0,0,0-.08-.14,3.29,3.29,0,0,0,.11-.72c0-.09-.51,0-.51.14a2.69,2.69,0,0,1-.06.48.4.4,0,0,0-.19,0,.31.31,0,0,0-.07.08c0-.24.13-.63.22-.64.25,0,.43-.31.07-.28-.71.06-.8.81-.87,1.44,0-.14,0-.28,0-.41a5.2,5.2,0,0,1,.24-.81c0-.08-.09-.1-.23-.08,0-.22,0-.45,0-.67s-.52-.16-.52,0c0,.54,0,1.08,0,1.63,0,.07,0,.13,0,.2m2.43,7.1h0s0-.05,0-.08v.08m3.59,0c0,.13,0,.25,0,.38h0v-.37h.06m-1.39,1.84c0-.07,0-.15,0-.22V37s0,0,.08.05-.05.15-.08.23M54.7,40.17c0-.4,0-.8-.06-1.2l.12,0c0,.41-.06.82-.07,1.23m-.88-.39a.11.11,0,0,0,0,0,.21.21,0,0,0,.12-.13h0v0c0,.06,0,.13,0,.19s0,.42,0,.63c0-.2-.05-.41-.08-.61m-.54,1a.22.22,0,0,0,.11-.12v0a6.52,6.52,0,0,1,0,.7c-.05-.18-.1-.36-.14-.54m-2.19-3.66.06,0c0,.1,0,.2,0,.29,0-.08,0-.16-.07-.24h0m-.5.07c0-.12,0-.24,0-.36l.1,0,0,.25a.14.14,0,0,0,0,0,.24.24,0,0,0-.12.1m-3.08-3.89v-.16l.16-.06h0a.69.69,0,0,0-.16.21m1.25,8.91c0,.16,0,.32,0,.48l-.14,0c0-.15,0-.3-.05-.45a.57.57,0,0,0,.21-.08m2.15,1.3q0,.79,0,1.58h0c0-.3,0-.59,0-.89s0-.45,0-.69m.44,3.09v-.11s0,.07,0,.11M53.71,48c0-.08,0-.16,0-.24v.51a.38.38,0,0,0-.17,0l0-.14c.08,0,.15-.08.16-.15m1,.31c0,.09,0,.18,0,.28h-.1v0a.14.14,0,0,0,.06-.1s0-.08,0-.11h0M47.45,54.2c.06-.44.13-.87.18-1.32,0,.44,0,.87,0,1.31a.46.46,0,0,0-.19,0m-1.19,5.95.12,0,0,0c0,.46-.09.93-.1,1.39,0-.45,0-.89,0-1.33m-1.38,2.26q0-.22.07-.45c0,.1,0,.19,0,.29a3,3,0,0,1,0,.34c0-.06,0-.12,0-.19M44,61.7a.14.14,0,0,0,.08.07q0,.23,0,.46c0-.18-.05-.35-.08-.53m-.74-.2a.53.53,0,0,0-.38.07s0,0,0,0,.23-.09.23-.17c0-.47,0-.94.05-1.41l0,.17q0,.7.07,1.39M42.72,63s0,0-.06,0,0-.1,0-.15a.39.39,0,0,0,.15-.05c0,.56,0,1.13,0,1.69,0-.48-.07-1-.14-1.45m-5.08,2.37.08,0v.07l-.07,0M35.11,61.8v-.47h0c0,.15,0,.29,0,.44l0,0m.44-5.95v-.24l0,.23h0m-1.24-5.6c0-.13,0-.26,0-.38,0-.47,0-.94,0-1.41l.06,0c0,.61,0,1.23,0,1.84v-.09m-2.38-1.48v-.08s0,0,.07,0l-.08,0M30,49.51a.4.4,0,0,1,0-.07c0-.06,0-.13,0-.19,0-.35-.07-.7-.1-1.05l.14-.07a7.78,7.78,0,0,0,0,1.15.09.09,0,0,0,.05.07c0,.06,0,.12,0,.18l-.06,0m-1.32-1.19h0c0,.23,0,.47,0,.71a5.58,5.58,0,0,1,0-.7m-.46-.08a1.2,1.2,0,0,0,0-.18c0,.05,0,.1,0,.15l0,0m-.58.24a.25.25,0,0,0-.09.09,2.42,2.42,0,0,0,0-.42s0,0,0,0a.54.54,0,0,0,.19-.08c0,.07,0,.14,0,.21a1,1,0,0,1,0,.16.13.13,0,0,1,0,.06l.06,0-.06,0h0m-1.27-.78h.11c0,.54,0,1.07-.06,1.6,0-.54,0-1.07-.05-1.61m-.63.54s0-.05,0-.08a.31.31,0,0,0,.14,0h0l-.13.05m-1.59.6c0-.07,0-.13,0-.19l.07,0s0,.06,0,.08l-.08.06m-3.3-1.91c0-.12,0-.25,0-.37H21l.09,0c0,.13,0,.25.07.38a.23.23,0,0,0-.13.15v.07l-.06,0A2.09,2.09,0,0,0,21,47s-.05,0-.15,0m-.77-.08s0,0-.08,0c0-.16,0-.32.08-.48,0,.43,0,.87,0,1.31,0-.27,0-.53,0-.8m-.58.41.07,0c0,.07,0,.13,0,.2s0-.13,0-.19l0,0m-.25,0a1.68,1.68,0,0,0,0-.24.56.56,0,0,0,.15-.09c0,.09,0,.17,0,.26a.07.07,0,0,0,0,.05.53.53,0,0,0-.25,0m3.25-11.54h0v-.83c0,.28,0,.55,0,.82m1.39-3.07h0v0m9.82,2.08h0c0-.17,0-.35,0-.52,0,.17.05.34.08.51m.88,1a0,0,0,0,0,0,0,.49.49,0,0,0-.19.08v-.08l.18,0m.51-.14c0-.08,0-.16,0-.24,0,.17,0,.34,0,.51a1,1,0,0,0-.36.64h0l0,0c0-.23.1-.47.16-.7a.05.05,0,0,0,0-.06c.12,0,.25-.1.25-.19m.71,2-.07,0c0-.18,0-.36,0-.54l.09.52m1-1.15V35.37c0,.38.09.76.15,1.14a.27.27,0,0,0-.12.11c-.06.15-.11.31-.16.47,0-.15,0-.29,0-.44a.22.22,0,0,0,.16-.19m1.45-.9c0,.22,0,.44.07.66a.22.22,0,0,0-.16,0c0-.21.05-.41.09-.62m.2,1.89c0-.29-.06-.59-.08-.89,0,.09,0,.18,0,.27s0,.42,0,.62m2.23.19a1.89,1.89,0,0,0-.17.59c0-.16,0-.32,0-.48a.31.31,0,0,0,.18-.1m.14-2,0,0s0-.08,0-.11v.09m1-1.14-.11,0a3.59,3.59,0,0,1,0-.55c0,.18,0,.35.06.53m1.39.27c0,.22,0,.44,0,.65l-.09,0c0-.22,0-.44.06-.67m1.28.1-.18.06a3,3,0,0,1,.09-.63c0,.19.07.38.09.57M48,42.56h0c0-.18,0-.36,0-.54,0,.17,0,.34.06.51l-.07,0m.75.8h-.07l0-.18a.18.18,0,0,1,.09-.09c0,.09,0,.18,0,.27M52,47.11h0l0,0v0M47.94,58.23c0,.45-.08.9-.1,1.36,0-.44,0-.88,0-1.33l.11,0m-.47-12.34c0-.07,0-.14,0-.21s0-.37,0-.56,0-.29,0-.43c0,.4,0,.8,0,1.21m-.15,3.91c0-1.24.09-2.48.12-3.73l0-.05c0,1.25-.08,2.51-.15,3.78m-2.24,11c0,.24-.06.48-.08.71,0-.25,0-.5,0-.75a.09.09,0,0,0,0,0l.07.06m-1.31-.7a2.7,2.7,0,0,0,0,.43s0,.08,0,.13l-.1-.55h.09m-3.35,2.14a.21.21,0,0,0,.12,0,.4.4,0,0,0,0,0h-.12s0-.06,0-.1m-2.1,1.2c0-.27,0-.53,0-.8a.09.09,0,0,0,0,0s0-.08,0-.13c0-.34,0-.68,0-1,0,.3.06.6.08.9s0,.71,0,1.06h0m-.52.23A20.2,20.2,0,0,0,37.54,61c0-.2,0-.41,0-.61h.11c0,.05,0,.1,0,.15s0,.09,0,.13a.17.17,0,0,0,0,.07,13.67,13.67,0,0,0,.13,1.79c0,.37,0,.73,0,1.1h0m-2.25-9.89a.65.65,0,0,0,.2,0c0,.09,0,.18,0,.27a.5.5,0,0,0-.23,0Zm-1.27-6c0,.12,0,.24,0,.36s0,.13,0,.2c0-.19,0-.37,0-.56M31,48.41a.33.33,0,0,0,.14-.06l.07.17c-.05,0-.09.07-.08.11l0,.13a.46.46,0,0,0-.14.06c0-.13,0-.27,0-.4m-4.77-4,0,.25a13.65,13.65,0,0,0,.24,2.57.17.17,0,0,0-.13,0c-.05-.93-.11-1.85-.15-2.78m-1.48,4.87c0-.21,0-.43,0-.64h.08c0,.19,0,.39,0,.58l-.08.06m-.06.34,0-.13s0,.08,0,.12h0m-2.86-1.12,0,0c0,.06,0,.12,0,.19l0,0c0-.06,0-.12,0-.18m1.9-11.66,0,0-.09-.77.1,0q0,.39,0,.79m.85-2V34.8s0-.08,0-.12h0v0h0c0,.08,0,.15,0,.23m1.1.9c-.05.22-.09.45-.12.68,0-.28,0-.55,0-.83.07,0,.12-.11.11-.18a4.57,4.57,0,0,1-.13-1.15q.06.57.15,1.15c0,.11,0,.21,0,.32m5-.48s0,.06,0,.09a.13.13,0,0,0-.06.1c0,.08,0,.16,0,.23l0,0c0-.49,0-1-.08-1.48.05.37.11.73.16,1.1m1.91-3c0-.31,0-.63,0-.95.06.3.1.6.14.91l-.11,0M33,33.61h0v-.47h0Zm.81,1.54h0l0,0v0m.69,3a7.18,7.18,0,0,1,0,.86.17.17,0,0,0,.15.18s0,.09,0,.13a.21.21,0,0,0-.14.14l-.13-.63c0-.22,0-.45.08-.67m.14-.91a.18.18,0,0,0,.14,0c0,.17,0,.34,0,.49a.13.13,0,0,0-.06.11.32.32,0,0,0-.23.16c0-.26.08-.53.13-.79m2,4.32q0,1-.07,2a.33.33,0,0,0-.19,0c0-.08,0-.16,0-.24s.11-.08.11-.13c0-.49,0-1,.08-1.49l.07-.09m.49-4.13c0,.18,0,.36.07.54a.31.31,0,0,0-.17,0c0-.17.06-.34.1-.51m2.11-2.89v0h0m.69,1.93v.06h-.07l.08-.05M41,43.73c0,.05,0,.11,0,.16a.2.2,0,0,0-.08.11c-.08.47-.17.94-.26,1.41q0-.81,0-1.63a.45.45,0,0,0,.36-.05m1.44-6c0-.16,0-.31,0-.46h0Zm1.41-1.44c0-.18,0-.36,0-.54,0,.18,0,.35.07.52l-.06,0m7.2,15c0-.12,0-.25,0-.37s0-.34,0-.51a.15.15,0,0,0,.12.09c0,.27-.06.53-.11.79m-3.89.71-.06-.88c0-.24,0-.49,0-.73a.27.27,0,0,0,.2-.15c0,.59-.08,1.18-.13,1.76m-.8,5,.14,0c0,.26,0,.52-.06.79,0-.25-.06-.5-.09-.75m-1.19,2.14c0,.17,0,.34,0,.52a4.59,4.59,0,0,1,0-.52m-.28,1.37h0m-.31.06h0Zm-1-2.28c0,.23,0,.47,0,.7,0-.19,0-.39,0-.58l0-.12m-5.43,2.48h0l0,.38a.16.16,0,0,0-.07-.1c0-.1,0-.19,0-.29M37,60.56V60.5a.52.52,0,0,1,0,.06h0M24.68,47.77c0,.15,0,.3,0,.46h0c0-.15,0-.3,0-.46M23.6,46h0c0,.08,0,.16,0,.24,0-.08,0-.16,0-.24m-1.73,2s0,.05,0,.08V48m-.5-5.48c0,.24,0,.48,0,.72,0-.18,0-.36-.07-.54s-.24-.09-.39,0v0c.14,0,.29-.08.29-.21-.1-1.51-.19-3-.21-4.52l.06-.05q.06,2.25.17,4.5a.17.17,0,0,0,.16.16M33.1,33.81l0,0h0v0M36.21,39l0-.05c0-.24,0-.48-.06-.72l.09,0c0,.26,0,.53,0,.8m.59,9.38c0-.47,0-.94.06-1.4l0,0c0,.48-.07,1-.1,1.44m.51-9.41a.06.06,0,0,0,0,0,.18.18,0,0,0,0,.09c0,1.31-.08,2.62-.12,3.93-.05.82-.11,1.64-.18,2.46q.13-3.47.26-6.93c0,.13,0,.26,0,.39m.75-.61c0-.17-.05-.34-.07-.52L38,38l0,.3m1.4-1.1-.13,0c0-.12,0-.24.06-.36l.07.32m.16,1.6v0c0,.1-.06.21-.09.31l0-.23c0-.34.06-.67.11-1l0,.12c0,.26,0,.52,0,.79m2.8.67h0v-.14c0-.08,0-.15,0-.23Zm4,.56-.1,0c0-.14,0-.29-.05-.43h.11c0,.13,0,.27,0,.41m-9,16.54c0-.16,0-.32,0-.48,0,.12,0,.25.06.37,0,.79,0,1.59,0,2.38h0c0-.75,0-1.52,0-2.26M37,59.72c0,.08,0,.17,0,.25s0,.24,0,.35a.15.15,0,0,0-.05.07c0-.22,0-.45,0-.68M34.19,45.63a.27.27,0,0,0,.19,0c0,.09,0,.18,0,.28s0,.21,0,.32c-.08-.14-.14-.28-.21-.43s0-.13,0-.2m-3.57.93h0v0Zm-.95-1.13.16,0c0,.3,0,.6,0,.91l-.06-.24c-.06-.21-.1-.41-.14-.62m-.48.29.06.27h0l0-.28m-.88-1.54.14,0s0,.08,0,.12c0,.2-.08.4-.12.6,0-.23,0-.47,0-.71m-1.85-1.9c.12,0,.23-.09.23-.18s0-.15,0-.23l0,.1c0,.31,0,.62-.07.93a.33.33,0,0,0-.13.06c0-.08,0-.17,0-.25a.17.17,0,0,0,0-.09c0-.11,0-.22,0-.34m-3.8,1.9c0,.11,0,.23,0,.34h0c0-.12,0-.23,0-.35m1.94-5.77h0c0,.45,0,.9,0,1.35a.1.1,0,0,0,0,0c0,.06,0,.12,0,.18l-.08-.23c0-.45,0-.89,0-1.34m-2.24,9.81c0-.39,0-.78,0-1.17h0a9.62,9.62,0,0,1-.06,1.18m3.3-6.37c0,.26,0,.53,0,.79l0,0c0-.62,0-1.24,0-1.85a.18.18,0,0,0,.06-.16c0-.22-.05-.45-.08-.68s0-.62,0-.93c.08.8.2,1.61.3,2.38a.13.13,0,0,0-.07.13l0,.14c-.07,0-.13.08-.13.15M28,35.25c0,.18,0,.35,0,.53h-.1q0-.27,0-.54l.15,0a.1.1,0,0,0,0,0m5.24.11,0,.08,0,0c0-.1,0-.21,0-.34l0,.28m.6,3.29v-.08l0,.08h0m0,.94h0s0-.06,0-.08a.19.19,0,0,0,0-.1c0-.17,0-.35,0-.52l.07,0,0,.08q0,.33-.06.66m2.41,8.17c0,.22,0,.44,0,.65l-.06,0C36.07,48,36,47.5,35.84,47c0-.13,0-.26,0-.39,0,.15,0,.31,0,.46s.16.08.3,0c0,.21,0,.42,0,.63m.7,3.11,0,.23c0-.67,0-1.34,0-2,0-.07,0-.13,0-.2h0c0,.65,0,1.31.05,2m.91-9.65c0,.82,0,1.64-.05,2.45h-.1c0-.36,0-.71,0-1.06.05-.83.09-1.67.1-2.51,0,.32.09.63.13.95a.19.19,0,0,0-.11.16m2.1,3.4c.07-.58.13-1.15.16-1.73q0,1.53,0,3.06c-.08-.44-.15-.89-.19-1.33m1.56-1.54v.19q0,.74,0,1.47s0,0,0-.07c0-.53,0-1.06,0-1.59M43,40.69a.11.11,0,0,0-.05.1l.06.36c0,.36,0,.71,0,1.07h-.1V40.12l.07,0c0,.21,0,.41,0,.62m2.84.38c0,.11,0,.22,0,.33l-.05-.27a.17.17,0,0,0,.06-.06m0-1.92c0-.16,0-.33,0-.49l0,.48h0m-1,14.17c0,.06,0,.13,0,.2a.16.16,0,0,0,.12.11l-.14.05c0-.12,0-.24,0-.36m-3.11,3.45c-.05.47-.1.95-.14,1.42V55.57c0,.4.1.8.14,1.21m-.65-3.17v1.83a.68.68,0,0,0-.19.06c.07-.63.13-1.26.19-1.9m-.71-.78a.3.3,0,0,0,.27,0c-.07.8-.15,1.6-.24,2.4,0-.81,0-1.63,0-2.44m-.68,5.55a.06.06,0,0,0,0,0c0-.86.06-1.71.13-2.57l.09,0c0,.93-.09,1.86-.19,2.78,0,0,0-.08,0-.12m-.85,1.06h0c0,.11,0,.22,0,.33,0-.11,0-.22,0-.33m-3-10.21s0-.05,0-.08l.1,0-.09.05m2.49-6.51c0,.24,0,.48,0,.72h0c0-.24,0-.48,0-.72h0m1.26-.81c0,.15,0,.29,0,.44l-.08.07c0-.29,0-.58.07-.87a.12.12,0,0,0,0-.06v0l0-.22c0,.22,0,.44,0,.66m0,8.43c.05-1,.08-2,.11-3.06a.29.29,0,0,0,.1-.09c0,.25.08.5.11.75a18.54,18.54,0,0,0-.31,2.4m1.87-8.12h0c0-.46,0-.92,0-1.37q0,.68,0,1.36m4.08.8s0-.08,0-.12,0,.07,0,.11l0,0m-.18,5.22c0-.07,0-.14,0-.22h0c0,.11,0,.21,0,.31v0a.06.06,0,0,0,0,0m-.89,8.12,0-.25q0-.33,0-.65,0,.45,0,.9m-3.11-6.42c0-.36.05-.71.07-1.06h0c0,.36-.05.71-.09,1.07m.55-.08a8.63,8.63,0,0,0,0,2s0,0,0,0H41.8c0-.19,0-.38,0-.57s0-.27.08-.4a.13.13,0,0,0,0-.11c.06-.4.1-.81.13-1.21,0,.08,0,.15,0,.23m.22-4.79c0-.27,0-.54-.07-.81s0-.46,0-.69c0,.19,0,.38,0,.56s0,.62,0,.94m.38,3.09.08-.72v2.71c0-.66-.05-1.32-.08-2m3.35-3.43a6.93,6.93,0,0,1-.1,1.48h-.05V45a9.27,9.27,0,0,1,0-1c0,.24.08.48.12.72m.84,1.11c0,.08,0,.15,0,.23h0c0-.08,0-.16,0-.24m-2.1,2.95c.07.73.13,1.48.15,2.21v.09l-.07,0c0-.78-.09-1.57-.2-2.34h.13m-.41-1.37c0-.06-.11-.07-.21-.05,0-.75,0-1.5-.09-2.24.14,0,.29-.1.29-.21v0l0,.36c0,.26,0,.52,0,.78,0,0,0,0,0,0,.05.82.1,1.63.15,2.44a10.09,10.09,0,0,0-.24-1.08m-.57-1.32c0,.3,0,.61.06.91s0,.81,0,1.21h0c0-.24,0-.49,0-.73,0-.47,0-.93,0-1.4m2.47.26c0,.05,0,.1,0,.15h-.09l0-.12.06,0m-1.3-.24h.06c0,.24,0,.49,0,.74,0-.24,0-.48,0-.73m1.41,3.54q0-.74,0-1.48,0,.74.07,1.49h0m-5.59-1.57a.5.5,0,0,0,.17-.05c0,.33,0,.67,0,1,0,.08.07.11.17.1s0,.2,0,.3a.48.48,0,0,0-.29,0l-.08-.73c0-.22.06-.44.1-.65M39.54,52c0-.32,0-.64.07-1,0,.32,0,.64,0,1h0M38.08,50l0-.14h0V50m.86-4q-.06.58-.12,1.16c0-.06,0-.13,0-.2q.05-.92.1-1.84h0c0,.3,0,.59,0,.89m-.25,4.82s0-.07,0-.11v.11m-.76-2.8c0,.25,0,.5,0,.75q0-.37,0-.74h0m.43,11.71,0,0,0-.11s0,.06,0,.09M35.31,47.7s0,0,0,0c0-.28-.07-.56-.1-.83v-.1c0,.14.06.29.1.43s0,0,0,0,0,.27,0,.41m5.51,3.6c0-.24,0-.48-.05-.72,0,.11.06.21.08.32s0,.27,0,.4m4,1s0-.1,0-.15h0v.15M31.16,41.24c0,.07,0,.15,0,.22l0-.22h0m3,3.86c0-.62,0-1.24,0-1.86a12.52,12.52,0,0,1,0,1.86M32.82,45v-.37l.14,0L32.9,45l-.08,0m.09-6v-.08a23.71,23.71,0,0,1-.24-2.68c0,.76.11,1.53.2,2.28,0,.06.07.08.16.08s0,.22,0,.33l-.11.07m-.81,3.46c0,.06,0,.12,0,.19l0-.21v0M32,40.6c0,.43.06.86.08,1.29l0,0c-.05-.44-.1-.88-.13-1.33l.1,0m1-1.49c0,.35,0,.71,0,1.06l-.11-1.07H33M31.59,39l.15,0c0,.32,0,.63.06.95a.21.21,0,0,0-.13-.07.11.11,0,0,0,0,0c0-.27-.06-.54-.09-.81M28.7,41.1q0,.27,0,.55h0c0-.22,0-.43,0-.65l0,.1M28.29,40v-.22l.07.2-.08,0M26.9,38.47c0,.15,0,.3,0,.45l0,0c0-.15,0-.29-.06-.44l.06,0m1.42.15v0s0,0,0,0v.05m1,1.75-.14,0c0-.18,0-.37,0-.54a.12.12,0,0,0,0-.08c0-.23,0-.46,0-.68,0,.43.09.85.12,1.28m.34-1.93c0-.28-.06-.55-.08-.83l.06.39c0,.15,0,.29,0,.44m0,3.91v0c0-.59-.06-1.17-.1-1.76a.43.43,0,0,0,.27-.12c0,.1,0,.19,0,.29s-.27.09-.27.18c0,.48.05,1,.08,1.45m-.61,1.56c0-.06,0-.13,0-.19,0-.39.08-.79.11-1.19,0,.45.06.9.11,1.36a.59.59,0,0,0-.21,0m1.46.9c-.07-.59-.17-1.17-.29-1.75s-.06-1-.08-1.43h0c0,.38.06.75.08,1.13,0,.09.11.12.22.1.06.73.1,1.45.13,2.18l-.07-.23M40.86,56.3l0,0s0-.1,0-.15,0,.12,0,.17m1.05,4.87a12.14,12.14,0,0,0,.27-1.28q0,.48,0,1a.08.08,0,0,0,0,.06c0,.18,0,.37,0,.55a.55.55,0,0,0-.25.05c0-.12,0-.23,0-.35m3.43-7.42c0-.07-.05-.11-.12-.12.14,0,.27-.12.23-.24a3.35,3.35,0,0,1-.11-1.07.2.2,0,0,0,.11-.1,1.72,1.72,0,0,0,0-.17c0,.67,0,1.33,0,2a.16.16,0,0,0-.06.13,13.15,13.15,0,0,1,0,1.57c-.06-.67-.12-1.33-.12-2M23.1,37.1c0,.1.06.2.09.3l0,.45c0,.19,0,.38-.07.58a.29.29,0,0,0-.13,0c0-.12,0-.25,0-.37,0-.32.06-.64.08-1m-4.61,1.63c0,.06.11.07.22.06h0c0,.05,0,.1,0,.15s-.11-.08-.23-.06c0-.13,0-.27,0-.4,0,.08,0,.17.06.26m.13.51h0v0m.63,1v.86c0-.25-.08-.51-.11-.76a.22.22,0,0,0,.11-.1m-.28,4,0,.06v-.05h0m1.19-3.94c0,.12,0,.24,0,.36a.18.18,0,0,0,0,.14c0,.22.15,1.39.29,2.58a.18.18,0,0,0-.17-.06l0-.16c0-.7,0-1.39-.07-2.09,0-.07,0-.13,0-.2s0-.38.05-.58m-1.3,4.59.06,0v.26a.14.14,0,0,0,0,.11.15.15,0,0,0,0,.06l-.07-.39m3,2.89,0,0s0-.08,0-.12v0c0-.07,0-.14,0-.21l.07.09c0,.1,0,.19,0,.29m1.53-2.38-.17,0c0-.53,0-1.06,0-1.6.13,0,.27-.08.28-.16s0-.26,0-.4h0c0,.33,0,.67,0,1-.19.08-.36.29-.08.29h.06c0,.28,0,.56,0,.84M38.82,61.07l0,0c0,.18,0,.37,0,.55,0-.18,0-.36,0-.53m3.33.95h0Zm3.11-4c0,.28,0,.57,0,.86a.29.29,0,0,0-.12.09c0-.44.06-.86.06-1.08v-.39a.5.5,0,0,0,.18,0c0,.13,0,.25,0,.38s-.17.1-.17.18m5.15-5.4s-.06-.05-.13-.05,0-.07,0-.11a.21.21,0,0,0,.16.05c0,.13,0,.26,0,.39,0-.09,0-.19,0-.28m-1.84,1.49c0,.08,0,.16,0,.24h0c0-.08,0-.16,0-.25M49,50.58c0-.26,0-.52-.05-.79a.13.13,0,0,0-.06-.1c0-.38.06-.76.09-1.14,0,.68,0,1.35,0,2m.22,4c0-.2,0-.4-.05-.59v-.08h.07c0,.22,0,.44,0,.65Zm1.85-5a.2.2,0,0,0,.12,0,2.54,2.54,0,0,1-.14.82s0,0,0,0c0-.29,0-.57,0-.86M38.92,35.45H39c0,.1,0,.2,0,.3a.09.09,0,0,0-.07,0c0-.09,0-.17,0-.26M34.54,40.1c0,.5.05,1,.05,1.52a.16.16,0,0,0,.06.13c0,.12,0,.24,0,.36l-.07,0c-.08-.66-.17-1.32-.25-2a.62.62,0,0,0,.21-.07m-.23-3.8q-.19.8-.31,1.61l-.16.05c0-.58.07-1.15.11-1.73,0,.13.22.14.36.07m-3.73.22c0,1.34,0,2.68.16,4a.37.37,0,0,0-.12.07c-.08-1-.17-2-.23-3.05.06-.34.11-.69.14-1h.05m-4-1.81c0,.13,0,.25,0,.38a.35.35,0,0,0-.25.07h0c0-.07,0-.14,0-.21s-.08-.07-.18-.06v-.05c.12,0,.38,0,.43-.13m4.58,13.35c0-.48,0-1,0-1.45,0-.19.07-.38.1-.57v0c0,.66,0,1.32,0,2l-.12,0m3.08-.7a.13.13,0,0,0-.06-.11c0-.1,0-.2,0-.3a.23.23,0,0,0,.18,0c0,.15,0,.31,0,.46a.22.22,0,0,0-.11.17c0-.08,0-.17,0-.25M46.15,33.87h.09V34h-.1c0-.06,0-.11,0-.17m-5.31,2c0,.17,0,.33.07.5s0,.63,0,.95h0a1.31,1.31,0,0,0-.17.24.14.14,0,0,0,0,0c0-.55,0-1.1.07-1.65m-.68.36,0,0a.53.53,0,0,0-.2.08v0a.33.33,0,0,0,.16-.08m-1.65,1.28s0,0,.09,0c0,.18.07.37.1.55s0,.14,0,.21l0,0-.1-.47c0-.12,0-.23,0-.35M19.33,46.79c0-.11-.11-.14-.23-.13s0-.24,0-.36a.33.33,0,0,0,.36,0c0,.16,0,.32,0,.48h-.12m4.35,1.77c0-.21,0-.42-.05-.63h.13c0,.21-.06.43-.08.64m2-.58a.35.35,0,0,0-.23,0v0a.49.49,0,0,0,.22,0V48m2.17-.89c0-.45,0-.9,0-1.36a8.53,8.53,0,0,0,.19,1.16s0,.05.1.06,0,0,0,.06a.54.54,0,0,0-.33.07m5.67,3.13a.56.56,0,0,0,.25,0l0,.25a.69.69,0,0,0-.21.07l-.08-.27m13.81,9h-.07a.1.1,0,0,0,0-.05c0-.09,0-.18,0-.27v.34m2.22-1.47c0-.27,0-.53,0-.8l0,0c0,.1,0,.2,0,.3s0,.36,0,.54M45,28.51l.08,0v.28c0-.09-.05-.17-.08-.26m-2.36-.29v.23h0v-.14s0-.06,0-.09h0M44.26,27l0,0c0-.09,0-.18.05-.28,0,.11,0,.21,0,.32m-.52,1.16a1.3,1.3,0,0,0-.07.25c0-.13,0-.26,0-.38A.5.5,0,0,0,44,28v0c-.11,0-.21.06-.23.12M43.15,28h0v0h0m9.26,4.22c0-.1,0-.2,0-.3l.06,0c0,.09,0,.18,0,.27m.86,1.14a.27.27,0,0,0-.16.11.8.8,0,0,0-.25.06,1.1,1.1,0,0,1,.06-.19.51.51,0,0,0,.35-.05s0,0,0,.07m.95,1.75-.05-.32h0c0,.11,0,.21,0,.32m3.34.83h.06a6.27,6.27,0,0,1-.14.88,8.29,8.29,0,0,0,.08-.87m-1.7,1v0ZM53.14,38.7c0-.07,0-.13,0-.2h.13l0,.22a.29.29,0,0,0-.15,0m-1.89-1h0M50.84,34c0-.09,0-.18,0-.27l.07,0c0,.15,0,.29,0,.44s0,.06.09.07,0,.14,0,.22c0,.62,0,1.24.08,1.86-.11-.76-.21-1.53-.27-2.3m-1.59-.1.13.49-.07,0c0-.17,0-.35-.06-.52M50,28.4a5.6,5.6,0,0,0,0,.64c0-.25,0-.49,0-.74l0,0s0,.08,0,.12m2.35,5.49c0,.12,0,.24,0,.37,0-.19-.07-.37-.09-.56v-.06l.08.26m-.53,2.23c.06.62.14,1.23.2,1.84h0c-.06-.62-.13-1.23-.21-1.85h0m-1.69-1.22L50,34.57h0c0,.11,0,.22,0,.34m-1.4-1.47s0,0,0,.06,0,.06,0,.09h0l0-.14h0m3.65,1.39s0,0,0,0a.45.45,0,0,0-.14.06v0a.37.37,0,0,0,.14-.08m-.72,0c0,.05,0,.11,0,.16l0-.16h0m-2.47-5.65v0h0a.25.25,0,0,1,0,0m.24,1.09h0l-.07-.3h.11Zm.29,2.17c0,.17,0,.33,0,.5,0-.16-.06-.32-.08-.48l.06,0M50.06,31h0v0s0,0-.08,0c0-.2,0-.4,0-.6,0,.22,0,.44.08.65m-1.94-12.2.17,0c0,.2,0,.4,0,.61-.07,0-.12.07-.11.11a7.37,7.37,0,0,1,.09.89h0q-.07-.78-.15-1.57m-2,1.85v-.39h0c0-.06,0-.12,0-.17l.1.54-.11,0m-1.52.18s0,0,0,.06,0,0,0-.06m-.56.91h0c0,.25,0,.49,0,.74Zm-.42-.79c0-.17,0-.34,0-.52l.07,0c0,.15,0,.3.07.45l-.12,0m-2,5.38h0v.2l0-.19m-.22-1v0l0-.18h0c0,.17,0,.35,0,.52,0-.1,0-.21-.06-.32m-1.07.87V25.8a2.78,2.78,0,0,1,0,.34m-1.93-.42v0h0a.36.36,0,0,0,.27-.14c0,.05,0,.11,0,.16a.36.36,0,0,0-.27,0m-1.66-3.14c.07.37.14.75.2,1.12-.07-.37-.14-.75-.2-1.12m-1.6.88a3.14,3.14,0,0,1,0,.39c0-.16-.06-.33-.1-.49s-.1-.09-.2-.09v-.06c.15,0,.32-.09.31-.18s0-.12,0-.18h0c0,.18,0,.36.06.54a.11.11,0,0,0,0,.07m-8.26,4.8,0,0a1.06,1.06,0,0,0,.05-.14v.51a1.87,1.87,0,0,1-.1-.32M26.55,27c0,.09,0,.17,0,.26l-.16,0c0-.1,0-.19,0-.29l.14,0m-1.44.46c0-.28,0-.56,0-.84l.06,0c0,.27,0,.54,0,.82h0m1.87-1v.22a.53.53,0,0,0-.25,0v-.18a.49.49,0,0,0,.25-.07m.14-.83a3.71,3.71,0,0,0,0,.56.13.13,0,0,0,.08.12l-.12,0h0a3.61,3.61,0,0,1,.06-.72m1.62-1h0v.07s0,0,0-.07m2.82-2.37h0a0,0,0,0,0,0,0v0m3.11-2.37V20a.16.16,0,0,0-.06.18l0,.05c0,.11,0,.21,0,.32,0-.2-.06-.4-.08-.6h.17m.49.28,0-.11,0-.11c0,.07,0,.15,0,.22m1.25.93h-.06a7.29,7.29,0,0,1,0-.83c0,.28,0,.55,0,.83M37.54,21c0,.18,0,.36,0,.54h0l-.11,0-.13-.49a.55.55,0,0,0,.25-.09m1.27-6.51h0m-2.48-1.9v-.07h0a.15.15,0,0,0,0,.07m-.67,3h0v.15s0-.1,0-.15m.19-2.56c0-.06,0-.12,0-.18s0,0-.06,0v-.16h0l.07.36h0m-.64,3.65s0-.1,0-.15l.09,0,.06.23a.25.25,0,0,0-.14,0m0-.72c0,.12,0,.24.07.36h-.07c0-.11,0-.23,0-.34l0,0m.28-.9v0h0m0-.5c0,.05,0,.11,0,.16s0-.09,0-.14l0,0m-.27,1.08v0h0m3-4.07h-.06l0-.14c0-.11,0-.21,0-.32a.85.85,0,0,1,.08.45m2.36,2.12c.15-.5.22-1,.35-1.53a11.8,11.8,0,0,0-.21,1.8.14.14,0,0,0,.05.11c-.09,0-.16.09-.16.16,0,.39,0,.79,0,1.18V13.82c0-.06,0-.1-.1-.11a.21.21,0,0,0,.1-.11m.68-.21c0-.14,0-.29,0-.43a2,2,0,0,1,0,.43M43,12.23h-.07c0-.25.05-.49.09-.74,0,.24,0,.49,0,.73m1-1.36,0,.14c0-.05,0-.1,0-.15h0m1.16-7.93h0s0-.08,0-.12l0,.12M47.3,4.51v0m8.27,5.31h0c0-.07,0-.15,0-.22l0,.22M61.47,14v.27a.23.23,0,0,0-.14,0c0-.08,0-.15,0-.23a.43.43,0,0,0,.16,0m1.38,2,0,.35a.26.26,0,0,0-.17,0l0-.3a.38.38,0,0,0,.15,0m.81-.73-.08.05.08-.05M60.94,28.07c0,.15,0,.3,0,.45l-.05,0c0-.14,0-.28,0-.42m-4.41,1.36,0,0,0-.09c0,.14,0,.28,0,.42h0c0-.1,0-.19,0-.28m-1.09-.72h0c0,.09,0,.19,0,.28l0-.12c0-.05,0-.1,0-.15M55,26.56c.1-.72.24-1.43.29-2.16v0c0,.29,0,.59,0,.89a.1.1,0,0,0-.05.07c0,.39-.08.78-.12,1.17l-.11,0m-2.85-5.74v.06c0,.07,0,.13,0,.2s0,.23,0,.34,0,.22,0,.33,0,0,0,0a1.85,1.85,0,0,0,.06.23l0,.16c-.3-.25-.26-.82-.14-1.36m-1.08-.5c0-.25,0-.51-.06-.76,0,0,0-.06,0-.09,0,.25,0,.51.06.76a.14.14,0,0,0,0,.07l0,0m-.74-.75h0Zm-1.76,1.21c0,.12,0,.24,0,.36,0-.12,0-.23-.06-.34h.06m-.39-3.62c0,.08,0,.15,0,.23,0-.08,0-.16,0-.23h0m-1.14,4.43a4.69,4.69,0,0,1,0,1.26l0,.1H47a10.21,10.21,0,0,0,0-1.38m-3.92-1.33s0,0,0-.06l.11,0-.11,0m-.62.56c0-.05,0-.1,0-.16a.51.51,0,0,0,.07.1l0,0-.1,0m-1.17,1,0,0h0c0,.09,0,.18,0,.27l-.06-.23M38.87,27a.14.14,0,0,0,.07,0l-.07,0s0,0,0-.08m.33-7.66L39.1,19l.13,0c0,.13,0,.26,0,.39m3.55-6.22c0,.05,0,.1,0,.16l-.1,0,0-.17.07,0M45.31,4V4h0l0,0m2.17,1.56v0h0m.88-1s0-.08,0-.12l0,.13h0m4.12,1.79h0l0,0v0m0,.38c0-.06,0-.11,0-.17v.16h0m1,2.38h0v0l0-.06v.07m1.87.93h0c0,.11,0,.22,0,.33h0c0-.11,0-.22,0-.33h0m1.15.28s0,.06.08.07a.15.15,0,0,0-.07.11c0,1.16-.06,2.32-.07,3.49a24.82,24.82,0,0,1,0-4h0c0,.1,0,.2,0,.3m.41,0h0Zm.5,1c0-.27,0-.54,0-.81,0,.26,0,.52,0,.78l-.06,0m.41.22h0v0h0l0,0M59,12.93l-.09,0v-.6H59c0,.19,0,.38,0,.57m1.37-.09c0-.17,0-.34,0-.51,0,.16,0,.33,0,.49l-.06,0m1.09,2.74,0,0c0,.13,0,.26,0,.39h-.09Zm2,1.59v.08h0v-.09h0m.71,1.63v0c0,.08,0,.16,0,.25a.17.17,0,0,0-.11,0v-.23h.1m2.56,4.12-.14,0v-.24a.39.39,0,0,0,.14-.06Zm-.33,4.51c0-.1,0-.19,0-.29v.29h0M66,31.54c0-.36,0-.72,0-1.07a.51.51,0,0,0,.17-.07c0,.28,0,.56,0,.84h0l0,0a.16.16,0,0,0-.06.11v.13h0M64.12,28.4v0h0v0m-.86-1.06,0,0c0,.14,0,.28,0,.41l0-.15c0-.08,0-.15,0-.23M58.53,21l0,.16,0,0s0-.09,0-.13a.11.11,0,0,0,0-.05m-8.41-1.55a.13.13,0,0,0,.06.08h0l0-.09m-.06-.55c0,.17,0,.34,0,.5a2.22,2.22,0,0,1-.06-.48l0,0m-.71.11h0c0,.39,0,.78,0,1.17,0-.39,0-.77-.06-1.16m-1.29-3.37c0,.07,0,.14,0,.21v-.21m-1.43,3.95c0,.09,0,.19,0,.28h0c0-.1,0-.2,0-.29M44.8,15.05c0,.18,0,.36,0,.55-.06.4-.11.79-.16,1.19,0-.58.08-1.15.11-1.73m-4.52,8.51v.16c0-.05,0-.1,0-.16m-1,2.49h0l.12.59h0v.23l-.16-.83m1-10.09s0,.09,0,.13-.37,0-.41.13c0-.07,0-.13,0-.2a.55.55,0,0,0,.4-.06M42,20.48c0-.11-.05-.22-.07-.33a4.79,4.79,0,0,1,0-.48.28.28,0,0,0,.17,0c0,.26,0,.52-.06.78m3.47-9.75s0-.07,0-.11,0,.07,0,.11h0m4.69-5.68q.12.89.24,1.77l-.11,0c0-.55-.09-1.1-.12-1.66a.09.09,0,0,0-.06-.08l0-.06m1.12,1.26s0-.1,0-.15h0s0,.1,0,.15m.42,4.28c0-.1,0-.2,0-.29,0,.1,0,.19,0,.29h0m5.67,1.83v0s0,0,0,0h0m1.33,4.45v0h0m1.38,0c0-.36-.08-.72-.11-1.08,0-.12,0-.24,0-.37,0,.48,0,1,.07,1.44m-.12,9.33,0-.07c0,.23,0,.46,0,.7,0-.2,0-.4-.05-.6l0,0m-3.6,1.85s0-.09,0-.14l0,0,0,.16m-2.5-6.28-.11,0c0-.25,0-.5,0-.75l.12.71m-1.21-3.51c0-.24,0-.48,0-.71,0-.58.05-1.17,0-1.75h0v0q0,1,0,2c0,.15,0,.3,0,.45m-5.12-2.62h0s0,.08,0,.12l-.06,0s0-.08,0-.12M47,18.18h0c0-.51-.08-1-.09-1.55L47,16.2l0,.19q0,.9,0,1.79m-1.38-.84v0s0,0,0,0Zm-.1-3a6.08,6.08,0,0,1,.07-.61c0,.19,0,.39,0,.59l0,0m-6,10c-.06-.38-.07-.77-.1-1.15,0-.15,0-.3,0-.45h.06c0,.64,0,1.28.07,1.91,0-.1,0-.2-.05-.3m-1-1c0,.09,0,.18,0,.27,0-.16,0-.32-.06-.48l0,.21m1.33-5.53,0,0v1.22h0Zm0-.18a4,4,0,0,1,0-.49l.09.41a.16.16,0,0,0-.06.08m1.37.16a.13.13,0,0,0-.08-.1l.09,0s0,.09,0,.14m-1.19,3.35c0-.11,0-.22,0-.33h0c0,.1,0,.2,0,.3l0,0m0,.41c0,.1,0,.2,0,.3H40c0-.1,0-.2,0-.3m-.15-2.08h0v-.09l0-.07Zm-.34,1.69h0v.1l0-.09m4-4.33.1-.79.13,0c0,.25,0,.49,0,.74a.48.48,0,0,0-.21,0m2.21-8.63c0,.32.12.63.19,1-.11,0-.21.09-.21.16s0,0,0,.07a4.88,4.88,0,0,1,0-1.18M46.14,7v.08h0V7.05h0m3.62.3c0-.12,0-.24,0-.36,0,.12,0,.24,0,.36m2.6,1.26,0,.09c0,.06,0,.13,0,.19,0-.1,0-.19,0-.29m2,.9s0,0,0-.05h0a.34.34,0,0,1,0,.05m2.71,4.12c0-.12,0-.23,0-.35l.08,0c0,.12,0,.24-.05.37m1-.87-.15,0a2.77,2.77,0,0,1,.18-.85q0,.4,0,.8M57,26.86c0,.08,0,.15,0,.23s0-.13,0-.2v0m-.5-3.19c.15,0,.34-.09.33-.2s0-.29,0-.44A.49.49,0,0,0,57,23c-.09,1-.2,2-.33,2.92a22.13,22.13,0,0,0-.13-2.21m-2.76-8.29c0,.29,0,.57.07.85v1.23a.17.17,0,0,0,0,0c0,.5,0,1,0,1.5-.07-.35-.13-.69-.2-1a10.54,10.54,0,0,0,.16-1.5c0-.37,0-.73,0-1.1m-2.22,3.31.09,0V19h-.07c0-.1,0-.21,0-.32m.35-6.89h0v0M51.75,14c0-.45,0-.9,0-1.34,0,.15,0,.31,0,.46s-.08.58-.09.88m1.89-.71v.1a.13.13,0,0,0,0,.09l0,.19c0,.44.06.91.09,1.39-.06-1.06-.2-2.11-.34-3.16a.2.2,0,0,0,0-.11h0q.06.75.13,1.5m.95,3.34c0-.82-.09-1.64-.15-2.46a.54.54,0,0,0,.17,0c0,.83,0,1.66,0,2.49m3.17-.61a.29.29,0,0,0-.18.14c0-.36,0-.72.06-1.08,0,.32.09.63.12.94m-1.65,3.45,0,.14a17.31,17.31,0,0,0-.17-1.78l.17,0c0,.55,0,1.11,0,1.66m-1.67,1.77.12,0v0a.19.19,0,0,0-.06.07l-.06,0s0,0,0-.07m3-4.22c0,.06,0,.13,0,.19s0-.11,0-.17h0m-1.9-1a.14.14,0,0,0,.11.13c0,.36.05.72.08,1.08a.28.28,0,0,0-.21,0V15.46q0,.33,0,.65m-.78-5.85c0,.9,0,1.8.06,2.7l-.07,0c0-.91,0-1.82,0-2.72m-5.86,2.9c.11,0,.21-.09.21-.19,0,.19,0,.37,0,.56,0,.7.06,1.39.06,2.08h-.11C49,14.8,49,14,48.93,13.16m.21-1.35-.06.06c0-.82-.07-1.65-.09-2.47l0,.17.14,1s-.08.05-.07.09a9.49,9.49,0,0,1,.06,1.13m0,1.11c0-.16,0-.33,0-.49l0,.21v.28M47.69,9.79c0,.16.06.33.08.5s0,.08,0,.12c0-.21-.05-.41-.08-.62m-1.37.61c0,.4.08.81.13,1.21,0,.77,0,1.55-.05,2.34h-.08c0-1-.06-2-.05-3,0-.21,0-.42,0-.64l0,.13m1.07-2,.05.23h0c0-.08,0-.16,0-.24m.23,5.2v-.2a.14.14,0,0,0,0-.06q0-.56-.06-1.12l.11.49q0,.45,0,.89h0M50,12.88l-.09-.65a.53.53,0,0,0,.18-.05c0,.23,0,.46,0,.69H50M58.09,19c0,.23,0,.46-.06.69,0-.29-.05-.59-.07-.88a.17.17,0,0,0-.1-.14l.06-.78h0c0,.15,0,.31,0,.46s.07.1.16.11c0,.17,0,.34,0,.51l0,0m1.58-1.11v0c0,.31,0,.62,0,.93h0c0,.21-.05.43-.08.65-.07,0-.13.07-.14.12v0q.09-.88.17-1.77M60,25.58h-.06c0-1.19,0-2.39,0-3.6l.13-.05c0,1.21-.08,2.43-.1,3.64M50.47,7.78c0,.26.06.52.09.78,0,0,0,.05,0,.08,0,.31,0,.62,0,.93a10.66,10.66,0,0,1-.1-1.78M48.52,5.11a.06.06,0,0,0,0,0l.07.25c0,.09,0,.18-.06.28,0-.23,0-.45-.05-.68V5s0,.05,0,.08m-4.26,7.05c0,.31,0,.62,0,.92v0c0-.25,0-.49,0-.74l0-.22m-1.71,2.06c0,.87,0,1.74,0,2.61l-.06,0c0-.17,0-.34,0-.51,0-.71,0-1.43.07-2.13m7.66.84c0-.36,0-.71,0-1.07,0,.17,0,.34,0,.51s0,.37,0,.55m5.5,10.81.05,0c0,.31,0,.63,0,.94l-.18.05c0-.32.07-.64.1-1m6-4c0,1.05,0,2.1.05,3.16h0l0-.17v-.09a.11.11,0,0,0,0,0c0-.1,0-.19,0-.29-.05-.86,0-1.71,0-2.58M61.57,18c0-.43,0-.86,0-1.29,0,.43,0,.86,0,1.29m3.23,9.77h0c0,.18,0,.37.06.56,0-.08,0-.17-.07-.25s0-.21,0-.31m-.07-7.52h0c0-.06,0-.11,0-.17h0a.07.07,0,0,0,0,0v.13m0,1.67c0-.16,0-.32,0-.48a.12.12,0,0,0,0-.08s0-.06,0-.1h0c0,.22,0,.43,0,.65m.57,5.15s0,0,0,.06V27.1Zm-1.51-1c0,.06,0,.12,0,.18,0-.14,0-.27,0-.41,0,.08,0,.15,0,.23m-.49.63c0,.09,0,.19,0,.28l0-.13c0-.16,0-.31,0-.46,0,.1,0,.21,0,.31m2.06-5h.15s0,0,0,.07l-.13,0,0-.1m-3.77-3.53s0-.09,0-.13a.15.15,0,0,0,0,.08.08.08,0,0,0,0,0m3.69,2.45v.67l0-.22c0-.15,0-.31,0-.46h0m-1-1.46c0,.31,0,.62,0,.93l0,0a3.25,3.25,0,0,1,.06-1m-3.89-6c0,.06,0,.12,0,.18h-.06l0-.18M47.48,6c0,.3.09.61.13.92l-.14-.59c0-.11,0-.22,0-.33M37.67,22.33v-.11A10.47,10.47,0,0,1,38,23.74q-.16-.7-.3-1.41m3.25,1.86h0a5.11,5.11,0,0,0,.13-1,6.36,6.36,0,0,1,0,1.05s-.08,0-.16,0m2.16-4.13H43c0-.13,0-.27,0-.41l.07,0c0,.14,0,.28,0,.42m17.45,2.88c0,.49.08,1,.12,1.48l0,.57a.15.15,0,0,0-.05.12c0,.1,0,.21,0,.31,0,.59-.08,1.17-.13,1.76q0-2.12.08-4.24M53.31,8.37l0,0c0-.12,0-.24-.07-.35l.05,0,.06.35M38.37,11.61h0l.1,0,0,.14-.09,0s0-.09,0-.14M33.59,22.45c0-.27,0-.55,0-.82,0,.27,0,.54.07.81l0,0m-.35-2.69,0,0v.41a.12.12,0,0,0,0,.06l0,0v0a.14.14,0,0,0,0-.1c0-.13,0-.26,0-.39m-1.72,3.37Zm.56,1c0-.1,0-.21,0-.31v-.75l0,0a4.71,4.71,0,0,1,.08,1.08l-.1,0s0,0,0,0m-.95-.08c0-.05,0-.1,0-.16,0,.14.06.28.07.42h-.05c0-.1,0-.19,0-.28m2.55-.15c0-.24,0-.48,0-.72a3.43,3.43,0,0,1,.12.69l-.1,0m6.66.88a.1.1,0,0,1,0-.14s0,0,0-.07h0c0,.07,0,.14,0,.21h0M45.5,20a.13.13,0,0,0,.06-.09c0-.3,0-.6,0-.9a2.41,2.41,0,0,1,0,.6.14.14,0,0,0,0,.06c0,.13,0,.26,0,.39l-.11,0s0-.05,0-.08m8.39,8.43,0,.17v0h0l-.07,0c0-.07,0-.14,0-.21m5.5,2.2c0-.15,0-.3,0-.44l.13,0a4,4,0,0,1-.09.86c0-.13,0-.26,0-.39M55.67,46.3h0l0,.23ZM68.83,28h0A3.66,3.66,0,0,1,68.94,27c0-.11-.14-.13-.29-.08,0,0,0,0,0-.07a4.81,4.81,0,0,1,.3-1.05c0-.07-.33-.05-.46,0a2.7,2.7,0,0,1-.08-.5c0-.05-.06-.08-.13-.08a.12.12,0,0,0,0-.07v-.9c0-.24-.52-.14-.52.05v.9c0,.09.07.13.15.14a.15.15,0,0,0,0,.1v0a.37.37,0,0,0-.24,0V25.4a.18.18,0,0,0,.1-.14V23.73a.16.16,0,0,0,0-.08,1.15,1.15,0,0,1,.08-.16c.19-.26-.29-.33-.43-.15l-.07.13V22.16c0-.11-.31-.08-.45,0a1.94,1.94,0,0,1,.11-.91c.1-.22-.23-.25-.4-.14h0v-.61c0-.09-.29-.06-.43,0v-.31c0-.07,0-.1-.11-.12V18.94c0-.16-.25-.15-.4-.08s0-.12,0-.18-.06,0-.12,0a3.5,3.5,0,0,1,.12-.89c0-.15-.25-.13-.42,0,0-.13,0-.26,0-.39s-.3-.18-.44-.08,0-.05,0-.08,0-.05-.07-.06c0-.2,0-.39,0-.59s-.19-.08-.34,0c0-.17-.06-.35-.1-.52a.14.14,0,0,0-.11-.1v-.08c0-.14-.22-.14-.37-.08,0-.06,0-.12,0-.18s0-.16,0-.23,0-.09,0-.07c.11-.15-.12-.32-.33-.21l0,0c0-.26,0-.52,0-.79s-.16-.18-.3-.15c0-.2,0-.41,0-.61s-.32-.19-.46-.07a.42.42,0,0,0-.27,0c0-.05,0-.11,0-.16v-.65c0-.25-.52-.16-.52,0v.1h0a3,3,0,0,0-.11-.74c0-.09-.12-.12-.22-.11s-.27-.1-.41,0c0-.32,0-.64,0-1,0-.08-.45,0-.5.11,0-.17,0-.33,0-.5s-.37-.21-.48-.06-.14.08-.14.14v1.2c0-.48,0-1,0-1.44,0-.07-.28,0-.42,0,0-.3,0-.6,0-.91,0-.14-.51,0-.51.14,0,.45,0,.91,0,1.36l-.14,0h0s.09-.06.08-.09c0-.73-.1-1.45-.11-2.17,0,0-.12,0-.24,0s0-.11,0-.17-.21-.13-.37-.06c0-.06,0-.11,0-.17s-.46,0-.51.09,0,.08,0,.13V8.06c0-.23-.51-.12-.51.06v.34l-.1,0c0-.34,0-.68,0-1a.06.06,0,0,0,0,0c0-.09,0-.19,0-.28s-.23,0-.39,0l0-.15c0-.07-.16-.07-.31,0v-.5c0-.13-.51,0-.51.14V7a4.62,4.62,0,0,0-.14-.83c-.07-.24-.58-.1-.51.14a4.37,4.37,0,0,1,.13.79.55.55,0,0,0-.16.07V6.6s-.1,0-.2,0a4.93,4.93,0,0,1,.1-1.12c.05-.23-.47-.16-.52,0s0,.13,0,.2l-.17,0a3.74,3.74,0,0,1,.07-.38c.06-.25-.46-.19-.52,0a4.85,4.85,0,0,0-.13,1.17c0-.24,0-.48,0-.73,0,0-.08,0-.17,0V5.08s-.18,0-.32,0V5c.06,0,.11-.06.11-.1V4.64c0-.07-.51,0-.51.14v0a.18.18,0,0,0-.11.14v.86l0,0V4.37c0-.27-.52-.2-.52,0V5h0V4.32s-.18,0-.33,0V4c0-.23-.51-.13-.51.06V5h0c0-.12,0-.25,0-.37A.09.09,0,0,0,51,4.52V3.78c0-.05-.27,0-.42,0a1.21,1.21,0,0,1,.08-.48c.12-.27-.4-.27-.49-.06a.9.9,0,0,0,0,.1c0-.14,0-.28,0-.42s-.52-.16-.52,0,0,.22,0,.33c-.15,0-.34.06-.34.21v.22a.15.15,0,0,0-.14-.08h0V2.47c0-.12-.51,0-.51.14v.62c0,.06,0,.11,0,.17l-.06-.19c0-.07-.1-.09-.19-.09a2.4,2.4,0,0,1,.14-.55c.09-.24-.28-.27-.44-.14V2.16c0-.06-.18-.05-.32,0,0-.2-.49-.12-.5.07V1.57c0-.07-.32,0-.45.06a.41.41,0,0,0-.29,0,.45.45,0,0,0-.28,0v0c0-.16-.23-.16-.4-.07v-.3c0-.23-.35-.22-.48-.07V1c0-.09-.2-.09-.35,0v0c0-.19-.35-.14-.47,0v0c0-.08-.18-.07-.33,0s0-.15,0-.22-.19,0-.33,0,0-.11,0-.17-.51,0-.51.14v0l-.05-.1c-.1-.14-.38-.07-.47.06l-.09,0,0,0A.18.18,0,0,1,42.6.43c0-.11-.37-.06-.48.06s-.18.1-.05.1h0c0,.12,0,.2.16.24a.4.4,0,0,0,.18,0c0,.11.11.21.29.18L42.86,1a.86.86,0,0,0,.12.26c.07.1.23.09.35,0a2.28,2.28,0,0,0,.06.33c0,.09.23.07.37,0,0,.16,0,.32.08.48s.19,0,.33,0v.12c0,.06.14.06.28,0s0,.2,0,.3.57.11.51-.14c0-.07,0-.14,0-.21q.07.31.13.63c-.06-.09-.5,0-.5.16a6,6,0,0,1-.05.61.52.52,0,0,0-.41,0c0-.14-.23-.16-.38-.09a.22.22,0,0,0-.11,0c-.22,0-.54.33-.19.33l.11,0a1,1,0,0,0-.06.31c0,.21.29.21.44.1v.06c0,.15.51.05.51-.14a.86.86,0,0,1,.07-.45c0,.17,0,.33-.07.5a5.29,5.29,0,0,0-.19,1.25c0,.19.48.1.51-.07a2,2,0,0,0,0-.36l0,0c0,.29,0,.58,0,.87,0,.12.1.16.22.15s0,.15,0,.22.51,0,.51-.14V6l.06,0a3.82,3.82,0,0,0,0,.53v0c-.15,0-.38.07-.38.18V7.83c-.15-.08-.44,0-.44.18s0,.6,0,.89v-.5c0-.27-.52-.18-.52,0V9c-.15,0-.32.07-.33.2s0,.51-.06.77c0-.09,0-.18,0-.26s-.15-.09-.29-.06c0-.16,0-.32,0-.49s-.52-.18-.52,0c0,.5,0,1,0,1.5-.14,0-.36.06-.39.15a7.2,7.2,0,0,0-.16.88c-.13,0-.27.09-.27.19a11.79,11.79,0,0,1-.11,1.85.11.11,0,0,0,0,.08l0,0v0l-.09,0c0-.28,0-.56,0-.83s.11-.83.18-1.24c0-.26-.48-.19-.52,0l-.07.42a.42.42,0,0,0-.23,0l.05-.32c0-.24-.46-.18-.51,0a4.82,4.82,0,0,1,.18-.59c.07-.17-.44-.11-.51.06a4.31,4.31,0,0,0-.14.43v-.1s-.1-.06-.22,0,0,0,0-.07-.38,0-.49.08c0-.34-.05-.68-.06-1s-.52-.19-.52,0v0c-.11,0-.22.09-.22.18v0c0-.12,0-.24,0-.36s-.27,0-.41,0a.48.48,0,0,0-.39.11c0-.25,0-.51,0-.76s-.52-.15-.52.05,0,.29,0,.43h0c0-.2,0-.39,0-.59s-.52-.2-.52,0,0,.37,0,.55h0v-.26c0-.28-.52-.2-.52,0v.28c-.14-.06-.43,0-.43.17V11c-.14,0-.44.06-.44.2v.37c-.14,0-.43.06-.43.17v.15a.23.23,0,0,0-.11.13,4.49,4.49,0,0,0-.1.58h0v.09c-.14,0-.3.08-.33.19s0,.17,0,.25c0-.2-.51-.1-.51.08v1a.11.11,0,0,0,0,0h0v-.13c0-.1-.51,0-.51.14v.54h0v-.23s-.12,0-.25,0a.55.55,0,0,0-.09-.11c-.1-.1-.57.09-.48.18h0c-.18.08-.36.28-.07.28a.38.38,0,0,0,.19-.06.34.34,0,0,0,.2,0v.24c-.11,0-.23.07-.25.13a1,1,0,0,0,0,.45.24.24,0,0,0-.15.12s0,0,0,.06a.47.47,0,0,0-.16.07c-.08.06-.06.13,0,.14v.06a.08.08,0,0,0,.06,0c0,.11,0,.22,0,.33s.15.13.3.09,0,.2,0,.3.52,0,.51-.14c0-.31,0-.62,0-.93,0-.07,0-.15,0-.22h0a3.19,3.19,0,0,1,.08.59.13.13,0,0,0,.09.13c0,.06,0,.12,0,.17s.51,0,.51-.14,0-.22,0-.32a.84.84,0,0,0,.23,0c0,.6.06,1.2.06,1.8,0,.1.51,0,.51-.14s0-.31,0-.46a.19.19,0,0,0,.11-.16v-.17h0a.16.16,0,0,0,0,.06c0,.1,0,.21.21.21s.3-.16.25-.27a.16.16,0,0,0,0-.11c.14.09.5,0,.46-.21s-.1-.37-.14-.56A.3.3,0,0,0,36,16v.08c0,.23.52.13.52-.06v-.43c0-.13-.18-.15-.33-.11,0-.11-.11-.16-.22-.16v-.45c.15,0,.32-.09.32-.2v-.35c.15,0,.34-.1.33-.2s-.08-.44-.12-.66c.16.11.53,0,.45-.21a1.77,1.77,0,0,1-.11-.71c0-.12-.12-.17-.25-.16a.12.12,0,0,0,0-.07v-.24a.32.32,0,0,0,.21,0,4.35,4.35,0,0,0,.14.65c.08.24.59.1.51-.14a4.21,4.21,0,0,1-.14-.62.39.39,0,0,0,.16,0,1.38,1.38,0,0,0,0,.78c.05.16.36.11.48,0,0,.07,0,.14,0,.21a.2.2,0,0,0,.22.12s0,.08,0,.11a.15.15,0,0,0,0,.08.1.1,0,0,0,0,.06v.81c-.15,0-.33.09-.33.16a3.83,3.83,0,0,0,.09.38,2.38,2.38,0,0,1,0,.46c0,.08.51,0,.51-.14s0-.14,0-.21.22-.09.23-.17l.06,0a.39.39,0,0,0,.36-.1c.1-.09.1-.29.09-.46l0,0h.09q0,.62,0,1.24c-.14,0-.31.08-.32.17s0,.12,0,.17-.28.08-.3.18a5.3,5.3,0,0,0-.08.88c-.11,0-.22.07-.24.12a4.29,4.29,0,0,0-.15,1.23.45.45,0,0,0-.37.06c-.16,0-.37.09-.36.25,0,.45.08.91.11,1.36a.2.2,0,0,0-.11.12c0,.14,0,.28,0,.42a3.65,3.65,0,0,0-.2-1.06c-.06-.16-.57,0-.51.14l0,.06a.27.27,0,0,0-.1.08.54.54,0,0,0-.38.07v0s-.13,0-.26,0l0-.08c0-.07-.42,0-.51.09l0,.05c0-.05,0-.11,0-.16s-.52,0-.51.14v0a.5.5,0,0,0-.24,0,7.24,7.24,0,0,1-.19-.8c0-.11-.53,0-.51.14s0,.23.07.34c-.15,0-.33.08-.33.18s0,.14,0,.21l0,.11-.11,0v-.4s0,0,0,0,.22-.1.2-.13a2.41,2.41,0,0,1-.13-.89l0,0c.09,0,.16-.09.16-.16V18c0-.12-.12-.15-.25-.14s0-.14,0-.21c0-.26-.52-.17-.52,0a3.75,3.75,0,0,0,.09.7c-.12,0-.24.09-.24.19a4.81,4.81,0,0,0,.06.93c-.15,0-.39,0-.4.19v0a.19.19,0,0,0-.1.16v1.09a.16.16,0,0,0,0,.09v.12c-.06-.35-.11-.7-.15-1.05,0-.15-.39-.09-.49.06L32,19.77c0-.18-.54-.06-.51.14l.08.59a.16.16,0,0,0-.09.13c0,.39,0,.77.07,1.15a1.87,1.87,0,0,0-.31-.81.14.14,0,0,0-.13,0c-.1-.16-.5-.08-.5.13v.21l0-.19c0-.23-.55-.1-.51.14s.06.41.09.61c-.14,0-.31.08-.31.15s0,.31,0,.46c-.05-.16-.1-.33-.16-.49s-.5-.14-.52.09a4.31,4.31,0,0,0,0,.64.75.75,0,0,0-.21.06c0-.19,0-.38,0-.57s-.49-.06-.51.12l-.12,0c.15-.07.29-.19,0-.19s-.56.24-.21.24h.07c-.07,0-.12.08-.12.14h0c-.11,0-.22.08-.22.14v1.31s.16,0,.3,0c0,.18,0,.35.06.53a.18.18,0,0,0,0,.12c0,.3,0,.6.06.9-.14,0-.3.08-.32.17a.39.39,0,0,0-.31,0,1.24,1.24,0,0,1,.08-.41c.1-.23-.33-.22-.45-.07l0,0c.11-.23-.4-.18-.48,0l0,.12v-.12c0-.21-.31-.21-.45-.09h0c0-.24-.51-.14-.52.05,0,0,0,.06,0,.09l-.19,0c0-.07,0-.14,0-.21s-.51-.05-.51.14c0,0,0,.07,0,.11H25c0-.16,0-.33,0-.49s-.52,0-.51.14,0,.11,0,.17-.22.08-.22.16v1.24c-.06,0-.11.08-.11.14,0,.91.1,1.81.11,2.72,0,.17.28.17.42.07,0,.1,0,.2,0,.29s.52,0,.51-.14,0-.4,0-.6l.15,0h0a3.2,3.2,0,0,1-.11.75c0,.15.46.07.51-.08a5.32,5.32,0,0,0,.12-1.72l0-.11v.64c0,.4-.1.81.23,1.11a.14.14,0,0,0,.09,0v0c0,.23.52.12.52-.06s0-.34,0-.5a.63.63,0,0,0,.28-.08V29c0,.08.51,0,.51-.14V26.3l0,0,.05,0V28c0,.26.52.17.52,0v-.78a.49.49,0,0,0,.25,0c0,.27.52.19.52,0,0,0,0-.09,0-.14l0,.34c0,.09.53,0,.51-.14l0-.24c.15,0,.35-.09.35-.2s0-.42,0-.62a.21.21,0,0,0,.11-.1l0-.09v0c0,.25.52.15.52-.05v0c.15,0,.4-.05.4-.18s0,0,0-.06a2.45,2.45,0,0,0,0,.25c0,.24.43.08.5,0a1.52,1.52,0,0,0,.15-.38c0,.1,0,.21.06.31s.57.09.51-.14c0-.05,0-.11,0-.16a.43.43,0,0,0,.2-.08s0,0,0,.07c0,.18.55.06.51-.14a2.4,2.4,0,0,1,0-.39h0c0,.23,0,.45.05.68s.52,0,.51-.14,0-.24,0-.36l0,0a.15.15,0,0,0,.13.06,3.35,3.35,0,0,1,.07.56c0,.14.52,0,.51-.14,0,0,0-.05,0-.08s.23-.09.23-.2c0-.28,0-.56,0-.84a.26.26,0,0,0,.15-.14,2.22,2.22,0,0,0,0-1.16.1.1,0,0,0,0-.08c-.09-.61-.15-1.21-.19-1.83h0c.1,1,.21,2,.3,2.94,0,.11.13.14.25.12a2,2,0,0,1,0,.49c0,.2.48.12.51-.06,0,0,0,0,0,0s.3-.08.32-.17l.11-.45a.39.39,0,0,0,.16-.09,2.74,2.74,0,0,1,.06.46c-.11,0-.2.1-.19.18s.09.21.11.33.39,0,.49-.08a.34.34,0,0,0,.22,0c0,.35.1.71.16,1.06s.55.08.51-.14-.12-.71-.16-1.07c.12,0,.23-.11.21-.2s-.06-.34-.1-.52a.16.16,0,0,0,.12,0c0,.52.07,1,.08,1.56,0,0,0,0,0,0a2.68,2.68,0,0,1,0,.69c0,.14.12.19.27.16,0,.13,0,.26,0,.39s.48.18.52,0,0-.25,0-.38a7.4,7.4,0,0,1,.09,1s.16,0,.3,0,0,.22,0,.33.3.06.44,0a4.71,4.71,0,0,1,.1.86c0,.12.13.16.26.14a7.33,7.33,0,0,1,.07.88c0,.15.51.05.51-.14a7.53,7.53,0,0,0-.06-.8c.13,0,.28-.09.28-.18V27.39c.15,0,.33-.08.33-.19v-.63c.13,0,.4,0,.43-.14a1.3,1.3,0,0,0,0-.21s.14,0,.26,0c.07.3.14.61.18.92,0,.15.54,0,.51-.14l0-.09c.14,0,.44-.06.44-.19V25s-.06-.06-.15-.06c0-.24,0-.47.08-.71.14,0,.36-.06.4-.17a3,3,0,0,0,.13-1.12c.14,0,.31-.08.31-.18v-.09l.08,0c0,.09,0,.19,0,.28s.46.18.52,0c0-.05,0-.11,0-.16v.87c0,.18.31.15.45,0,0,.11,0,.21,0,.32s.51.05.51-.14c0-.83.11-1.66.13-2.49,0,.19,0,.37,0,.56s.51,0,.51-.14,0-.49,0-.73h.15V22.3c0,.07.51,0,.51-.14v-.28h.12a9.51,9.51,0,0,1-.09,1c0,.05.49,0,.51-.14a9.27,9.27,0,0,0,.09-.94c0,.14,0,.29.06.43a.13.13,0,0,0,.09.11,8,8,0,0,1-.11,1.25c0,.25.42.21.51,0a.47.47,0,0,0,.43-.12l.07-.12c0,.08.2.08.34,0a.31.31,0,0,0,.15,0c0,.29,0,.58,0,.86s.52.14.52-.05,0-.56,0-.84a.42.42,0,0,0,.21,0c0,.56,0,1.13,0,1.69,0,.2.32.17.45.05,0,.28,0,.55,0,.83l0,0,0,0v0a10.11,10.11,0,0,0-.12,2.19,1.17,1.17,0,0,0-.11.16,5.36,5.36,0,0,1,.1-.66c0-.09-.06-.12-.17-.12a4.93,4.93,0,0,0-.16-1.23.15.15,0,0,0-.11-.09c0-.2-.43-.17-.5,0l0,.09c0-.15,0-.3,0-.45s-.52,0-.51.14c0,.81.09,1.61.15,2.41,0-.23,0-.46-.07-.7h0a2.84,2.84,0,0,0-.1-.65.16.16,0,0,0-.12-.1,1.49,1.49,0,0,1,.11-.47c.11-.25-.4-.21-.48,0a2.47,2.47,0,0,0-.14,1.17c0-.21,0-.42,0-.63s-.18-.17-.33-.13V26c0-.15-.51-.06-.51.14v.33a.21.21,0,0,0-.1.11,3.22,3.22,0,0,0-.14,1.2h0c0-.23-.07-.46-.11-.68s-.17-.85.08-1-.3-.08-.39,0a.66.66,0,0,0-.27.52.18.18,0,0,0-.11.08c0,.07,0,.14,0,.21A2.33,2.33,0,0,1,44.9,26c.06-.17-.45-.11-.51.06s0,.09,0,.14c0-.16-.48-.07-.51.08s-.11.55-.15.83h-.14c0-.05,0-.1,0-.16s-.41-.05-.49.07c-.08-.06-.49,0-.49.16v.53h-.08a1.3,1.3,0,0,1,0-.5c.06-.19-.46-.12-.51.06A1.67,1.67,0,0,0,42,28a.13.13,0,0,0,0,0c0,.08-.09.13-.11.22s.07.15.19.14h0a.39.39,0,0,0-.16.07.34.34,0,0,0-.13.26v.43c0,.08.2.07.35,0,0,.14,0,.29,0,.42s.06.08.13.08l.06.25c0,.08.23.06.37,0s.36-.06.36-.2,0-.12,0-.17a.13.13,0,0,0,.06-.08.23.23,0,0,0,.15-.11s0,.08,0,.12a.22.22,0,0,0,.19.12v.32c0,.16.51.06.51-.14v-1h0c0,.2,0,.4,0,.59s.37.22.48.07.15-.07.15-.13,0-.09,0-.14c.15.05.5-.08.45-.19l0,0a.75.75,0,0,0,.33-.05,2.52,2.52,0,0,0,.15.46c.08.16.58,0,.51-.14a2.81,2.81,0,0,1-.2-.68.61.61,0,0,0,.34-.08v0s.1,0,.21,0v.14c0,.27.52.19.52,0v-.58h0c0,.1,0,.2,0,.29a.13.13,0,0,0,.07.12c.08.74.15,1.47.15,2.21,0,0,.08,0,.17,0s0,.21,0,.31-.08.06-.08.1c0,.45,0,.91,0,1.37-.15,0-.35.06-.35.21v.37a.46.46,0,0,0-.25.08c0-.06-.14-.06-.26,0s-.48,0-.46.18a.92.92,0,0,0,.05.22h0a.37.37,0,0,0-.33,0c0-.09,0-.17,0-.26s-.48-.07-.51.08a3.2,3.2,0,0,0,0,.41l-.13,0h0c0-.12-.51,0-.51.14v0l-.06,0c0-.05,0-.11.06-.16s-.43-.09-.51.07A2.65,2.65,0,0,0,43.8,35a.07.07,0,0,0-.05,0c0-.4,0-.8,0-1.21s-.52-.19-.52,0,0,.21,0,.31a.7.7,0,0,0-.26,0c0-.08,0-.16,0-.24s-.51-.09-.51.07,0,.35,0,.53h0V35c0-.4-.1-.8-.14-1.21,0-.08-.51,0-.51.13,0-.11,0-.22.07-.33s-.47,0-.51.09a3.62,3.62,0,0,0-.12.84s0-.05,0-.08-.14-.06-.26,0c0-.41,0-.82,0-1.23,0-.21-.32-.2-.46-.08-.05-.08-.22-.08-.35,0-.12-.13-.48,0-.48.14v.54c0-.16,0-.32,0-.48s-.52-.16-.52,0c0,0,0,0,0,.05s-.44,0-.44.17v.83c-.15,0-.46.07-.43.19s.06.41.09.61h0c0-.1-.26-.09-.4,0,0-.23,0-.47,0-.71s-.52-.13-.51.06c0,.46,0,.92.05,1.38h0A16.56,16.56,0,0,1,37.28,34c0-.13-.29-.1-.43,0v-.17c0-.28-.52-.22-.52,0v.6c-.15,0-.32.09-.32.21v1a14,14,0,0,1-.25-2.17c0-.28-.52-.21-.52,0s0,.69.07,1a.37.37,0,0,0-.25.14C35,34.17,35,33.6,35,33c0-.14-.51,0-.51.14,0,.47,0,.94.06,1.41a9.48,9.48,0,0,1-.09-1.22c0-.07-.27,0-.42,0,0-.23-.08-.46-.13-.68s-.3-.14-.43,0v-1.6c0-.09-.36,0-.48.07,0-.09,0-.19-.07-.28s-.36,0-.47.05c-.12-.14-.48-.06-.48.14s0,.2,0,.31a.44.44,0,0,0-.33.12c0-.06,0-.13,0-.19s-.55,0-.51.14.06.37.09.56a.11.11,0,0,0-.06.07c0,.08,0,.16-.06.24,0-.22,0-.44,0-.66,0-.06-.11-.08-.23-.05,0-.24,0-.49,0-.73,0-.08-.51,0-.51.14,0,.32,0,.64,0,1-.14,0-.26.12-.23.24v0a.39.39,0,0,0-.19.07c0-.12,0-.24-.08-.36s-.19-.1-.33-.06V31.3c0-.13-.51,0-.51.14v.14a.53.53,0,0,0-.35.08.44.44,0,0,0-.37.1,1.92,1.92,0,0,0-.07-.24.19.19,0,0,0-.11-.1v-.08a.11.11,0,0,0,0-.09c.06-.08,0-.16-.12-.16s-.36.17-.34.26a.09.09,0,0,0,0,0v.35h-.14v-.22c0-.15-.51-.05-.51.14v.49h0c0-.17,0-.33,0-.5s-.27-.21-.42-.12c0-.08,0-.16,0-.23s-.51,0-.51.14,0,.33,0,.49-.23.09-.23.16v.33a.43.43,0,0,0-.25,0c0-.59,0-1.17,0-1.76,0-.24-.52-.14-.52.05v.08c-.14,0-.43.06-.43.18v.59c-.1,0-.2.07-.22.14a3.34,3.34,0,0,0-.12.53c-.16,0-.42.1-.4.17v0c-.12,0-.46,0-.46.18,0,.33,0,.67,0,1v-.37c0-.06-.25,0-.4,0,0-.37,0-.74,0-1.12,0-.14-.51,0-.51.14,0,.45,0,.89,0,1.34-.12-.12-.48,0-.48.14v1.29h0v0c0-.24-.52-.15-.52.05s0,.34,0,.51a3.66,3.66,0,0,0-.18-.34,1.49,1.49,0,0,1,0-.23c.18,0,.25-.23.14-.32l0-.07c.08-.1-.07-.15-.14-.15a.45.45,0,0,0-.34.14,1,1,0,0,0-.21.41l0,0s0-.1,0-.14,0,0,0,0a.52.52,0,0,1,.14-.11s.17-.12.06-.15a.54.54,0,0,0-.36.06,1.12,1.12,0,0,0-.58.86c-.14,0-.42,0-.43.17s0,.15,0,.23c-.16,0-.33.12-.29.27s0,.11,0,.16l-.15,0,0-.1c0-.17-.56,0-.51.14s0,.19.06.28c-.14,0-.28.08-.28.21v.32c-.06,0-.11.08-.11.13v.09c-.16,0-.37,0-.37.2s0,.27,0,.4a2.73,2.73,0,0,0-.09.33c-.14,0-.29.08-.28.16,0,1-.08,2-.09,2.95,0,0,.13,0,.25,0s0,.06,0,.08c-.15,0-.4.08-.4.18s0,.12,0,.17a.36.36,0,0,0-.22.11,1.84,1.84,0,0,0-.22,1s0,0,0,0c0,.31,0,.63,0,.95,0,.08.31,0,.44,0v.05c-.07,0-.13.07-.12.1.11.22.22.43.48.46l.23,0c.08.83.29,1.66.38,2.5,0,.07.13.08.25.06a1.65,1.65,0,0,0,.2.41c.06.09.23.07.35,0a3.24,3.24,0,0,0,.5,1.36h0v0c.07.08.48,0,.5-.15a5.7,5.7,0,0,0,0-1,.16.16,0,0,0,.13.12,3.63,3.63,0,0,1-.1.76c0,.13.47,0,.51-.09a4.15,4.15,0,0,0,.09-1.28.25.25,0,0,0,.12-.08h0a7.64,7.64,0,0,1-.11,1.41c0,.08,0,.13.11.14v.51c0,.24.52.15.52-.05v0c.15,0,.38-.06.39-.18s0-.07,0-.11l0,0c0,.05,0,.1,0,.15s.2.14.35.08a.54.54,0,0,0,.24.29c.11.06.44,0,.49-.13s0-.15.07-.23c0,.17,0,.35,0,.52s.44.13.5-.07h.12c0,.21.53.09.51-.14a3.87,3.87,0,0,1,0-.4l.08,0a4.07,4.07,0,0,1-.09.69c0,.09.17.1.33,0a.61.61,0,0,0,.13.44c.1.12.44,0,.49-.13a1.3,1.3,0,0,0,.09-.36h0a.38.38,0,0,0,.43-.12s0-.07,0-.1a.41.41,0,0,0,.06-.21c0-.05,0-.11,0-.16a2.65,2.65,0,0,1,0,1c-.05.2.47.13.51-.06a2.14,2.14,0,0,0,.06-.57.26.26,0,0,0,.13-.1c0,.16,0,.33-.05.49s.48.17.52,0,0-.37.06-.55v0c0,.19.52.08.51-.14s0-.22,0-.32a.16.16,0,0,0,.05-.05,1.39,1.39,0,0,0,.06-.21s.06.07.2.06a.52.52,0,0,0,.43-.3,3.85,3.85,0,0,0,.11,1.11c.07.24.58.1.51-.14a2.07,2.07,0,0,1-.06-.31c0,.05.35,0,.47-.08,0,.18,0,.35.06.53s.11.07.23,0,0,.09,0,.13c0,.32.39.24.55,0a4.08,4.08,0,0,1-.12.62c0,.16.46.09.51-.07a3.82,3.82,0,0,0,.11-.52s0,.07,0,.11.22.15.36.08,0,.08,0,.13c-.2,0-.49.28-.16.28a.08.08,0,0,1,.08.06c.09.09.31,0,.42,0h0c0,.1.51,0,.51-.14,0-.37,0-.74,0-1.11.08,0,.14-.09.14-.15h0l0-.05c0,.49.1,1,.1,1.46,0,0,.18,0,.33,0s.17.12.31.08c.08.61.15,1.22.19,1.84-.14,0-.3.08-.3.21,0,.36,0,.72.08,1.08-.15,0-.29.11-.27.17a1.21,1.21,0,0,1,0,.84c0,.08.21.07.37,0,0,.17,0,.33,0,.5s.53.21.52,0,0-.32,0-.48a.45.45,0,0,0,.21,0c0,.09.21.08.36,0,0,.27,0,.54,0,.8,0,.07.26,0,.41,0,0,.26,0,.52,0,.79s.51.05.51-.14c0-.79,0-1.58-.11-2.37h.1q0,1.12,0,2.25c0,.13.11.18.22.18v.74c0,.14.46.06.5-.11l.09.64q0,.53,0,1.07c0,.35,0,.72,0,1.09-.15,0-.36.06-.37.2A8.1,8.1,0,0,1,35,61.16a.43.43,0,0,0-.36,0v0c0-.27-.52-.2-.52,0v.65c0,.2.29.21.44.1v.23c0,.17.31.14.44,0v.19c0,.13.11.17.23.17a1.73,1.73,0,0,0,.17.35v0a.06.06,0,0,0,0,.05h0a.16.16,0,0,0,.12.05,3.82,3.82,0,0,1,.06.51c0,.17.23.19.38.13,0,.08,0,.15,0,.23s0,.09.1.1,0,.22,0,.33.3.15.44,0c0,.07,0,.14,0,.21s.23,0,.39,0c0,.43,0,.88.39,1a.56.56,0,0,0,.36-.08c0,.11,0,.22-.05.33,0,.27.48.2.52,0s.06-.38.09-.57h0c0,.13,0,.27,0,.41s.51.15.52-.05c0,0,0,0,0-.05a.11.11,0,0,0,0,0,1.57,1.57,0,0,0,0-.2q0,.66,0,1.32c0,.27.52.2.52,0V66l0,0c0,.21,0,.43.09.64s.55,0,.51-.14v0c.14,0,.31-.1.31-.21v0l.19,0s0,0,0,.07c0,.2.28.21.43.11.12.15.53,0,.48-.19a3.12,3.12,0,0,1-.07-.51l.11-.06c0,.16,0,.33,0,.49s.51.05.51-.14,0-.2,0-.3a.46.46,0,0,0,.17,0,.37.37,0,0,0,.26-.38c0-.12-.1-.16-.21-.16s0-.08,0-.12a.79.79,0,0,0,.21,0c0,.17,0,.34,0,.5s.53,0,.51-.14,0-.09,0-.14.45-.05.45-.19,0-.08,0-.13.44-.06.44-.17,0-.07,0-.11,0,.14,0,.22c0,.23.54.11.51-.14s0-.26,0-.39c.16,0,.42-.08.4-.19s0-.08,0-.11c.15,0,.33-.1.31-.18h0c.17.1.52,0,.44-.21a1,1,0,0,1-.09-.31c.14,0,.39,0,.42-.18s.05-.33.07-.5c.13.13.47,0,.47-.15s0-.4,0-.59a4.06,4.06,0,0,0,.14,1c0,.14.55,0,.51-.14a6.07,6.07,0,0,1-.08-2.25V62c0,.23.52.13.52-.06V61.1c.14,0,.43-.06.43-.21s0-.26,0-.38c.12.11.47,0,.47-.15s0-.5,0-.75a.14.14,0,0,0,0,0c0-.21,0-.42,0-.63a5.6,5.6,0,0,0,.07.8c0,.16.54,0,.51-.14s0-.17,0-.25a.52.52,0,0,0,.2,0c0,.1,0,.2,0,.3s.54,0,.51-.14,0-.08,0-.12c.15.06.48,0,.45-.2s0-.07,0-.1c.15,0,.34-.08.34-.19,0-.66,0-1.33,0-2h0v2.26c0,.27.52.2.52,0V57.58c.06,0,.11-.08.11-.13V55.38c0-.07,0-.1-.11-.12a.15.15,0,0,0,0-.08c0-.12,0-.23,0-.34s0-.11-.1-.13v-.11c.07.16.57,0,.51-.14a4.16,4.16,0,0,1-.22-1.34c0,.06,0,.11,0,.17s.47,0,.51-.1.23-.09.23-.2V51c0,.26,0,.51,0,.77s.52.13.52-.06c0-.45,0-.91,0-1.36a.23.23,0,0,0,.14-.12,3,3,0,0,0,.13-.42v.06s0,0,.09,0c0,.36-.11.72-.17,1.09s.48.15.52-.05a11.07,11.07,0,0,0,.22-1.74c0-.08-.06-.12-.14-.13v-.37l.16,0v1.88c0,.28.52.21.52,0V49.38a.42.42,0,0,0,.26-.08h0s0,0,0,.06.37,0,.48-.06.42,0,.46-.13a3.3,3.3,0,0,0,.11-1.44v-.11h0c.07,0,.11-.07.11-.11s0-.23,0-.34.14-.09.14-.16h0a.43.43,0,0,0,.17-.08c0,.08,0,.17,0,.25s0,.1.12.1,0,.07,0,.1c-.06.24.46.18.52,0a4.31,4.31,0,0,0,.11-.6c.11,0,.21-.09.22-.17,0-.24,0-.48,0-.72.15,0,.4-.07.4-.18a18.82,18.82,0,0,1,.15-2c.1,0,.18-.09.18-.17v-.65c.15,0,.33-.08.33-.15v0c.11,0,.22-.1.22-.19v-.65c0-.15-.51-.05-.51.14v.31h0v-.09c0-.24-.52-.14-.52.05v.67c-.15,0-.33.08-.33.2v.91a.43.43,0,0,0-.29.11,3.77,3.77,0,0,0-.17-1c-.06-.18-.57,0-.51.14a3.94,3.94,0,0,1,.17,1.15.29.29,0,0,0-.2,0v-.14c0-.25-.52-.15-.52.05v1l-.12,0c0-.23,0-.46,0-.69s-.51,0-.51.14,0,.57,0,.86a.13.13,0,0,0,0,.08c0,.18,0,.36,0,.54h0v-.49c0-.11-.11-.15-.23-.14,0-.21.07-.42.12-.62s-.48-.13-.52.06c-.09.43-.16.86-.22,1.29,0-.57,0-1.14,0-1.72,0-.08-.21-.07-.37,0a1.43,1.43,0,0,0-.07-.21c-.06-.15-.56,0-.51.14a1.88,1.88,0,0,1,.12.43c-.07,0-.12.07-.12.11v.62a6,6,0,0,0-.36-1.41.16.16,0,0,0,0-.06,6.51,6.51,0,0,1,.16-1.2c.05-.22-.47-.14-.52.05a5.83,5.83,0,0,0-.12.75l-.13,0q0-.85,0-1.7c0-.28-.52-.21-.52,0s0,.42,0,.63a2.75,2.75,0,0,0-.14-.83c0-.09-.19-.09-.32,0,0-.3,0-.59,0-.89s-.38-.18-.49,0c0-.15,0-.3-.06-.45s-.2-.09-.34,0c0-.12,0-.25,0-.37s-.17-.14-.31-.09c0-.16,0-.32,0-.47s-.46-.05-.5.11c0-.47,0-.94,0-1.42,0-.08-.51,0-.51.14,0,.31,0,.63,0,.95,0-.21,0-.42,0-.64,0-.06-.16-.06-.3,0v-.06c0-.47,0-.94,0-1.41,0-.22-.51-.11-.51.06,0,.37,0,.75,0,1.12a.14.14,0,0,0,0,.11c0,.09,0,.17,0,.26q0,1.09.06,2.17c0-.43-.05-.86-.09-1.29A9.32,9.32,0,0,0,47,37.18a.2.2,0,0,0-.14-.12c0-.39.06-.78.08-1.17,0-.13-.25-.11-.4,0,0-.55-.07-1.09-.08-1.64a1,1,0,0,0,.25-.09v.11c0,.13.18.15.32.1,0,.2.29.21.43.11,0,.05,0,.1,0,.15s.51,0,.51-.14,0-.1,0-.16l.15.85a.15.15,0,0,0,.12.12,6.84,6.84,0,0,0,.1,1c0,.14.23.14.37.08,0,.15,0,.31.07.47s.54.08.51-.14-.05-.37-.08-.56a.31.31,0,0,0,.25,0v.06l.29,1.71c0,.12.26.09.4,0,0,.27,0,.54,0,.81s.52.16.52,0c0-.42,0-.83-.06-1.25a11.07,11.07,0,0,1,.31,1.89c0,.09.15.11.27.08s0,.24.05.36.56.11.51-.14c0-.09,0-.17,0-.26h0a3.53,3.53,0,0,0,.13.93c.06.2.57.05.51-.14a2.74,2.74,0,0,1-.07-.34.73.73,0,0,0,.21,0,12.2,12.2,0,0,0,.43,2c0,.09.29,0,.43,0a3.94,3.94,0,0,1-.1.64c-.06.24.46.18.52,0a4.05,4.05,0,0,0,.11-.66,2,2,0,0,1,.14.6c0,.27.53.2.52,0a2,2,0,0,0-.06-.37.13.13,0,0,0,.06-.08,8.36,8.36,0,0,0,.11-1.33c0,.22,0,.45,0,.67,0,0,.05,0,.12,0a3,3,0,0,0,.1.5c.06.19.44.1.5,0a2,2,0,0,0,.13-.81.13.13,0,0,0,0-.09c.12,0,.47,0,.46-.17,0-.29,0-.58,0-.87H56c0,.19,0,.38,0,.58s.51,0,.51-.14c0-.46,0-.93,0-1.39l0,0v.44s0,.05,0,.08h0v.15c0,.14.51,0,.51-.14v0h0c0-.16,0-.31,0-.47a.16.16,0,0,0,.09-.13s0-.06,0-.08.11-.08.11-.13a6.79,6.79,0,0,1,0-.74l0,0a8.41,8.41,0,0,0,0,1.34c0,.13.51,0,.51-.14a7.81,7.81,0,0,1,0-1.32c0,.23,0,.46,0,.7s.51,0,.51-.14c0,0,0-.06,0-.09s.41,0,.44-.19,0-.11,0-.16.41,0,.41-.18c0-.43,0-.85.06-1.28.1.06.48,0,.48-.18,0-.58.1-1.16.11-1.74,0-.1-.29-.07-.43,0s0-.06,0-.09c0-.23-.52-.13-.52.06,0,0,0,.05,0,.08a.31.31,0,0,0-.22.14l0,.09V34c0-.12-.51,0-.51.14v1.63s0,0,.06.05V36l-.09,0c0-.17,0-.33,0-.5s0-.62,0-.94c0,0,0,0-.07,0,0-.22,0-.45,0-.67s-.52-.17-.52,0c0,.05,0,.1,0,.16s-.44,0-.44.17v.33a.29.29,0,0,0-.15,0c0-.09-.28-.07-.41,0a.33.33,0,0,0-.4.11c0-.29,0-.58,0-.88,0-.12-.51,0-.51.14s0,0,0,.07l-.06,0a2.06,2.06,0,0,1,.12-.23c.13-.19-.39-.13-.47,0v0c-.06-.09-.26-.07-.39,0,0-.09,0-.17,0-.26s-.15,0-.29,0V33.3c0-.14-.19-.15-.34-.1a5.93,5.93,0,0,1,.12-1c0-.16-.48-.07-.51.08h0a.55.55,0,0,0-.32.05,2.54,2.54,0,0,1,.07-.36c0-.16-.46-.08-.51.07a2.14,2.14,0,0,0-.06.26A4.23,4.23,0,0,1,53.06,31c0-.11-.28-.09-.43,0s-.3.09-.3.18v.21a.17.17,0,0,0-.16-.15v0c.07,0,.13-.08.13-.14V28.69l0,0v1.74c0,.25.52.16.52,0V29h.07a4.84,4.84,0,0,0,.07.48c0,.12.19.13.32.08a2.75,2.75,0,0,0,.22.46s.12.05.21,0,0,.26,0,.4.51,0,.51-.14,0-.12,0-.18a.33.33,0,0,0,.25-.1s0,.08,0,.11a.15.15,0,0,0,.06.09c0,.11,0,.21,0,.32s.18.06.32,0v.82c0,.25.52.15.52-.05v-1a.13.13,0,0,0,.11.05,2.66,2.66,0,0,1,0,1.41c0,.12.46.06.51-.08a1.85,1.85,0,0,0,.09-.68c0,.41.05.82.05,1.23,0,.13.52,0,.51-.14,0,0,0,0,0-.06.15,0,.41-.07.4-.23v0a.37.37,0,0,0,.25-.17,1.05,1.05,0,0,0,.08-.42h.08a5,5,0,0,1-.13,1.14c-.06.23.46.16.52,0s0-.26.07-.39a.23.23,0,0,0,.15-.15A10,10,0,0,0,58.3,30h0v1.9c0,.23.51.13.51-.06V29.11a.45.45,0,0,0,.18,0c0,.16.09.32.12.49-.13,0-.27.09-.27.18,0,.41,0,.82,0,1.23s0,.85.47.72c.22-.06.24-.21.14-.26l0-.06a.85.85,0,0,1,0-.11c.13.05.42,0,.45-.16v0a.35.35,0,0,0,.15,0,.45.45,0,0,0,.41-.31,2.84,2.84,0,0,0,0-1.13h.1a2.59,2.59,0,0,0,.18.61c.08.19.59,0,.51-.14s0-.08,0-.12a.25.25,0,0,0,.15-.16,2.47,2.47,0,0,0,.06-.39.56.56,0,0,0,.21,0c0,.05,0,.11,0,.16s.15.08.3,0c0,.14,0,.28,0,.42s.52,0,.51-.14,0-.38,0-.57l.13,0c0,.6.08,1.21.15,1.81,0,.11.53,0,.51-.14s0-.35,0-.52c.13,0,.25-.08.27-.15,0,.55,0,1.09,0,1.64,0,.26.52.17.52,0s0-.55,0-.82c0,.15,0,.29.08.43s.25.12.39,0a5.22,5.22,0,0,0,.12.71c0,.09.28,0,.42,0a2.78,2.78,0,0,0,.35.88.23.23,0,0,0,.25.05,7.73,7.73,0,0,0,.17,1.1c0,.21.56.08.51-.14,0-.06,0-.13,0-.19h.06a2.72,2.72,0,0,1-.1.63c0,.08.09.1.21.08v1.21c0,.22.33.22.46.09a2.42,2.42,0,0,1,0,.25c0,.12.17.13.33.08v.17c0,.07.51,0,.51-.14v-.22s-.18,0-.32,0a4.94,4.94,0,0,0-.11-1.75c0-.1-.18-.1-.32-.05v-.11a.17.17,0,0,0-.14-.17c0-.21,0-.43,0-.65,0-.06-.1-.07-.22-.05a16.69,16.69,0,0,0-.1-1.9c.06,0,.1-.07.1-.12V31c.15,0,.33-.07.33-.2V28.18c.11,0,.22-.09.22-.2,0-.37,0-.74.07-1.1a.3.3,0,0,0,.25-.15,1.69,1.69,0,0,0,.12-.48.32.32,0,0,0,.21-.14,1.27,1.27,0,0,0,.08-.27,4.7,4.7,0,0,0,.17.67,1.18,1.18,0,0,1,0,.34l0,.18s0,0,0,0,0,.11,0,.15c0,.27,0,.53.05.8,0,.05,0,.08.11.08s.29.13.43,0v.75c0,.1.51,0,.51-.14V28c0-.08-.29-.05-.43,0"/><path class="cls-1" d="M28.56,20a.18.18,0,0,0-.11,0l.06,0,.07,0h.14s0,.08,0,.13a.43.43,0,0,0-.17,0M30,20a.34.34,0,0,1-.09-.19c0-.06-.1-.07-.21-.06s0-.08,0-.12-.11-.15-.22-.15h0a6.34,6.34,0,0,1-.33-1.85c0-.13-.45-.05-.5.11a.62.62,0,0,1,0-.22c.06,0,.11-.07.11-.11v-.11c0-.06-.21-.05-.36,0a.32.32,0,0,0-.24.13c-.16,0-.36.1-.34.21s.1.36.11.54.37.08.48-.05h0a.33.33,0,0,0,.28,0c0,.19,0,.38,0,.58-.15,0-.35.07-.35.19s0,.34,0,.51a.17.17,0,0,0-.09.14c0,.09,0,.22-.07.27a.26.26,0,0,0-.13.14.2.2,0,0,0-.12.18.49.49,0,0,0,.13.26.19.19,0,0,0,.13.06.68.68,0,0,0,.08.16c.09.12.42,0,.48-.1l.13,0a.8.8,0,0,0,.13.23c.06.07.24,0,.37,0,.14.12.53,0,.47-.2s0-.16-.05-.25c.16,0,.32-.13.25-.21"/><path class="cls-1" d="M28.47,17.09v-.24a.39.39,0,0,0,.09-.06,1,1,0,0,0,.24-.47.07.07,0,0,0,0-.06l0,0c-.13,0-.43,0-.45.16h0c-.15,0-.32.08-.32.19v.54c0,.24.52.15.52-.05"/><path class="cls-1" d="M27.28,18.72a.05.05,0,0,1,0,0c0-.07-.1-.09-.21-.08s0-.06,0-.09c0-.25-.52-.15-.52,0a3.24,3.24,0,0,0,.06.45c-.15,0-.37.07-.38.22s-.12.13-.1.18c-.17.07-.36.24-.08.24.12,0,.34-.13.34-.21l0,0a.35.35,0,0,0,.22,0h0c0,.25.52.15.52-.05a2.8,2.8,0,0,0,0-.39c.18-.05.39-.21.16-.27"/><path class="cls-1" d="M11.75,10.88c0-.1,0-.2,0-.29h.06c0,.08,0,.16,0,.25l-.08.06M8.09,13.22c0,.07,0,.14,0,.21l0,0c0-.09,0-.18,0-.27l0,0M9,12c0,.06,0,.11,0,.17v0c0-.05-.11-.06-.22,0s0-.06,0-.1A.41.41,0,0,0,9,12M11,9.67c0,.14,0,.29,0,.43a3.5,3.5,0,0,0-.05-.58.16.16,0,0,0,.1.16m2.16-2.38h0v.4c0,.11.09.16.2.16a1.3,1.3,0,0,0-.14.28s0-.07,0-.1-.07,0-.13,0a.16.16,0,0,0,.07-.12V7.3h0m.23,4c0-.17,0-.34,0-.5a.61.61,0,0,0,.25,0h0s-.06,0-.07.07-.08.3-.12.45m-.74.7c.09,0,.17-.08.18-.14s0-.2,0-.3c0,.09,0,.18,0,.27l0,0a1.37,1.37,0,0,0,0,.16l-.18,0V12m-2.28-.42h0c0-.28,0-.56.06-.83,0,.28,0,.55-.05.83m2.92-1.39h0v0m-2.78,1.7h.1v0h-.11v0m-.64.72-.1,0c0-.1,0-.19,0-.29a.15.15,0,0,0,.09.12l0,.12m-.32-1.33c0-.06,0-.12,0-.18h0c0,.11,0,.23,0,.34a.43.43,0,0,0-.37,0s0,0,0,0,.33-.08.33-.16m6.07-2.73c0-.06,0-.12,0-.17s-.47-.12-.51.06,0,.09,0,.13,0-.08,0-.12c0-.23-.55-.1-.51.14,0,.06,0,.13,0,.19V8.71a.1.1,0,0,0-.06-.06,1.1,1.1,0,0,0,0-.15c0-.21-.5-.11-.51.06a1.4,1.4,0,0,1,0,.25h-.11A5.57,5.57,0,0,1,14,8.26c0-.07-.18-.07-.34,0a1.05,1.05,0,0,1,.29-.55c.17-.15-.09-.18-.27-.14V7.28h0c0,.11.5,0,.51-.14,0,0,0,0,0-.06s.21-.09.21-.16,0-.3,0-.45c.14,0,.45,0,.45-.2V5.52c0-.15-.51-.05-.51.14v.5l0-.1c-.06-.14-.52,0-.51.12a3,3,0,0,0-.3.64c-.15,0-.36.06-.36.2v.07h0c0-.26-.52-.17-.52,0v.18h0a.48.48,0,0,0-.36.1,1.05,1.05,0,0,0-.36.58L11.79,8c-.15,0-.37.06-.37.19s0,.37,0,.56h0V8.72c0-.16-.16-.2-.31-.17.09-.08.12-.18-.08-.18s-.54.3-.2.3l.09,0a.17.17,0,0,0,0,.1v.76c0-.07,0-.13,0-.2V9.22c0-.07-.51,0-.51.14v.18h0s-.05,0-.12,0,0-.1,0-.15-.12-.09-.25-.06-.35.07-.37.15l-.24,1.2c-.09,0-.17.06-.19.11a1.29,1.29,0,0,0-.09.37.48.48,0,0,0-.35,0,.24.24,0,0,0-.18.13c-.13-.12-.47,0-.47.15v1.26l0,0v-.46c0-.09-.43,0-.5.1a.31.31,0,0,0-.17.08c-.1-.16-.5-.08-.5.13,0,.41,0,.81,0,1.22-.1,0-.17.08-.17.13h0a.41.41,0,0,0-.15.07c-.14,0-.29.09-.29.2v.69L6.13,15a2,2,0,0,0-.06.33.2.2,0,0,0-.09.07l0,.07v-.36c0-.21-.51-.11-.51.06v.3c-.11,0-.22.09-.22.17v.65c-.14-.07-.44,0-.44.17v.22c0,.25.52.15.52-.05v-.22a.13.13,0,0,0,0-.08c.13,0,.46,0,.46-.18v-.12h0a2.46,2.46,0,0,0,0,.27c0,.07.26,0,.41,0s.29-.08.32-.18a2.33,2.33,0,0,0,.07-.49c.08,0,.15-.09.15-.16v-.74l.07-.25c0,.42,0,.83,0,1.25s.52.19.52,0c0-.66,0-1.31.06-2l.07,0v2a.15.15,0,0,0,.07.13c0,.15,0,.29,0,.44s.5.12.51-.06c0-.51.07-1,.09-1.53.07.08.5,0,.5-.16s0-.2,0-.3V14c0-.26,0-.51,0-.77,0,.22,0,.44,0,.66s0,.65,0,1c0,.13.51,0,.51-.14s0-.13,0-.2a.34.34,0,0,0,.43-.17l.14-.06v.73c0,.19.26.21.41.12l0,.12c.05.19.57,0,.51-.14a8.19,8.19,0,0,1-.21-.94c.14.11.45,0,.45-.16v0a.28.28,0,0,0,.2-.18c.06.17.54.05.5-.15a2.24,2.24,0,0,1,0-.38c.12,0,.24-.09.24-.2,0-.55,0-1.1-.06-1.65,0-.12,0-.24,0-.35l.05.19h0c0,.15.07.3.11.45s0,0,0,0c0,.28,0,.58,0,.86a.1.1,0,0,0,0,.08l0,.1c0,.05,0,.11,0,.16s.14.13.25.11a.51.51,0,0,0,.33-.13l.16,0v0c-.11,0-.2.09-.21.16a3.78,3.78,0,0,1-.06.52.3.3,0,0,0-.13.07,2.61,2.61,0,0,0-.24.58c0,.12.45.06.51-.08a1.39,1.39,0,0,0,.06-.18c.13,0,.27-.09.27-.18a3.82,3.82,0,0,1,.06-.51c.13,0,.27-.09.27-.21s0-.28,0-.42l.2,0a1.77,1.77,0,0,0,0,.4c0,.14.28.12.37.07S14,13.1,14,13a.1.1,0,0,0,0-.12,2.36,2.36,0,0,1,0-.37.15.15,0,0,0,.05-.1c0-.05,0-.1,0-.15l.16,0v0c.07.14.42,0,.49-.08a.31.31,0,0,0,0-.09s0-.06-.06-.07a2.38,2.38,0,0,1-.07-.75c0-.08,0-.16,0-.24s.5,0,.5-.15,0-.29,0-.43a.17.17,0,0,0,.09-.13v-.21s0-.06-.08-.07,0-.13,0-.2.42,0,.42-.17,0-.22,0-.33.21-.1.21-.2V8.72a.17.17,0,0,0-.14-.17"/><path class="cls-1" d="M12.05,14.42a.49.49,0,0,0-.3.13.66.66,0,0,0-.11.39s-.07,0-.08.07,0,.09,0,.14h0c0,.06,0,.13,0,.19s-.14.16.06.16a.5.5,0,0,0,.26-.1c.1,0,.18-.07.18-.13a2.33,2.33,0,0,1,0-.32c.05,0,.09-.06.09-.09a.66.66,0,0,1,.1-.41c.05-.07-.19,0-.2,0"/><path class="cls-1" d="M53.4,59c0,.09,0,.18,0,.27,0-.09,0-.18,0-.27m2.53-3.27c-.06.18-.12.35-.17.53a.26.26,0,0,0-.17.1c0,.08-.06.16-.1.24s-.34.09-.34.21v0c-.13,0-.29.07-.33.15a4.57,4.57,0,0,0-.15.44.23.23,0,0,0-.18.2s0,.06,0,.09-.42.06-.42.18,0,.29,0,.43l-.14,0s0-.1,0-.15-.51,0-.51.14v0c-.14,0-.41.07-.43.17a4.43,4.43,0,0,0-.12.9c-.14,0-.32.08-.32.18V60h0c-.07.22-.11.45-.17.67-.15,0-.38.05-.38.2V61c-.11,0-.21.1-.21.18v.33c0,.15.51.05.51-.14v-.08c.12,0,.22-.09.22-.2v0a.43.43,0,0,0,.29-.13l.06,0s0,0,0,0,.51,0,.51-.14,0-.41,0-.61h.08c0,.1,0,.19,0,.29s.51,0,.51-.14,0-.34,0-.5c.16,0,.37-.11.34-.2a2.41,2.41,0,0,1-.08-.3.58.58,0,0,0,.19-.06c0,.26.51.2.52,0,0-.52.09-1,.1-1.55a.23.23,0,0,0,.11-.1,1.64,1.64,0,0,0,.06-.17c.1.08.49,0,.49-.19v-.07c.11,0,.21-.08.22-.15s0,0,0,0,.43-.06.43-.18v-.68l.1-.3c.1-.29-.41-.3-.49-.07"/><path class="cls-1" d="M35.32,18.92l0-.06c0-.15-.53,0-.51.14a.17.17,0,0,0,.06.12c.11.12.6-.06.48-.19"/><path class="cls-2" d="M169.33,21.73c-.21.58-.67,1-.66,1.46a2.5,2.5,0,0,0,2.19,2c2-.09,2.69-6-.22-5.32-1.06.24-1,.94-1.31,1.9m-.95,12.18c1.12.19,2,0,2-1.09,0-.62-.33-1-.51-1.46-.37-1.06-.64-2.26-1.53-2.41a8.94,8.94,0,0,0-2.12.44,9.65,9.65,0,0,1-2.92.07c-.92-.19-2.5-1.31-2.19-2.55a1.49,1.49,0,0,1,1.24-.8c.76,0,1.07.74,2,.95s1.4-.13,2.33,0c1-.66.43-1.63.29-3,0-.32-.23-.59-.22-.8s.27-.57.36-.95.05-.9.15-1.17A6.21,6.21,0,0,1,169.47,19a3.6,3.6,0,0,1,4.52,2,11.45,11.45,0,0,1-.36,3.43c-.13.42-.53.68-.66,1.09-.08.25,0,.57-.07.8-.29.68-1.15,1.15-1.24,2-.07.64.28,1,.37,1.61,0,.24,0,.52,0,.73.28,1.34,1.17,2.74.29,4A5.66,5.66,0,0,1,169,36.17a5.15,5.15,0,0,1-1.24,0,8.4,8.4,0,0,1-1.82-.51c-.26-.1-.55-.09-.66-.15a4.84,4.84,0,0,1-1.75-1.9,1.6,1.6,0,0,1,1.67-2.19,6,6,0,0,1,2,.51c.57.44.43,1.49,1.09,2"/><path class="cls-2" d="M228,30c-.11-.67-1.27-.69-1.68-.07a1.8,1.8,0,0,0-.14,1.39c.81.21,1.93-.59,1.82-1.31m26.18.29c.27,1.28,2.62-.34,1.46-1.53-.7,0-1.59.9-1.46,1.53M187,24.71c.29,1.19-.85,2.14-.58,3.58.08.45.62,1.1,1.09,1,.28,0,.56-.66.8-1a7.72,7.72,0,0,0,.95-2.26c.27-.84.8-1.29.58-2.33-.87-1.57-2.33.11-2.85,1m76.5,6.49c-.75.18-.91,1-1.46,1.39-.22.17-.63.16-.87.37s-.32.68-.58.95-.57.24-.87.44-.46.5-.73.58-.73,0-1.1.07a5.45,5.45,0,0,1-2.41.51c-.74-.1-1.48-.85-2.77-.44-1.75.56-1.24,2.7-1.17,4.74,0,.58-.12,1.25-.07,1.82a5.51,5.51,0,0,1,.15,1.46c-.35,1.66-3.26,2.66-4.59,1.31a11.38,11.38,0,0,1-.95-1.75c-.52-1.84.25-3.4,1.6-3.65-.22,1.25-1,4.26,1.61,3.65a2.54,2.54,0,0,0,.44-2.92c-.15-.28-.34-.78-.44-.88-.57-.58-.94-.21-1.09-.73s.25-1.18.22-1.68c-.06-.79-.79-1.94-1.38-2s-.82.8-1.39.88c-.76.1-.87-.41-1.75-.51-.44-.63-.74-1.63-1.53-1.68-1.32-.08-2.13,2.18-3.28,2.48-.62-.14-1,.18-1.46.14-1.24-.1-2-1.53-3.28-1.38-.63.07-1.12,1-1.68,1.17-.29.1-.71,0-1.1.07s-.71.35-.95.36-.71-.31-1-.36c-.74-.14-1.55,0-2.33-.22-.24-.05-.46-.28-.73-.37s-.66,0-.95-.14c-.77-.27-1.35-1-2-1.17a6.53,6.53,0,0,0-1.89.22c-1,.12-2-.34-2.77-.22a4.08,4.08,0,0,0-1.68.87c0,.57.38.63.36,1.09a2,2,0,0,1-1.16,1.46c-1.23.43-3.56-.35-3.94-1.24a7.24,7.24,0,0,0-.44-2.26,2.42,2.42,0,0,0-2-.73c-.75.08-.95,1-1.46,1.53-.26.26-.68.35-1.09.66s-.67.79-.95.88a7.61,7.61,0,0,1-2.48.07,2.84,2.84,0,0,1-1.46-1c-.46-.78-.06-2.4-1.39-2.4-.68,0-1.37,1-2,1.31-.28.13-.71.19-1,.29a18.25,18.25,0,0,1-1.9,1,4.25,4.25,0,0,1-1.53.29c-.57-.08-1.18-.94-1.31-1.31-.3-.83.09-1.36-.58-1.68a3.6,3.6,0,0,0-3.14.87c-.24.38-.15.84-.29,1.09a1.68,1.68,0,0,1-1.31.88c-.75,0-1.18-1.16-2-1.16s-1.23,1.41-2.26.95a8.82,8.82,0,0,1-5.62.88c-.65-.13-1.12-.78-1.68-.8a3.82,3.82,0,0,1,2-4.88,1.66,1.66,0,0,1,2,.95c.14.51-.22,1.16.07,1.75.6,1.23,4.19.07,4.38-1a7.22,7.22,0,0,0-.51-2.7,7.56,7.56,0,0,1,.44-4.67c.29-.54.88-.92,1-1.82a5,5,0,0,1,4.3-2c.4.22.55.73.8,1.17a3.76,3.76,0,0,1,.66,1.31c0,.41-.36.67-.51,1.24-.08.3,0,.65-.07.88a8.66,8.66,0,0,1-.8,1.24c-.17,1.49-1,2.31-.87,4.09,1.43.83,2.29-1,3.5-1.31a2.45,2.45,0,0,1,2.48.88c.22.52,0,1.28.22,1.75a1.24,1.24,0,0,0,.95.73c.74.08,1.13-.57,2-1,.35-.19.78-.22,1.09-.37.78-.36,1.28-1,1.82-1.17a2.75,2.75,0,0,1,1.9.15c.24.23.17.69.29,1s.46.61.65,1c.35.75.35,1.34,1,1.38.35,0,.67-.34,1-.51.6-.29,1.48-.52,2-.8,1-.62,1.69-2.09,3.65-1.53a4.61,4.61,0,0,1,1.9,1.53c.38.85.15,2.22,1.31,2.11.75-.06.8-1.3.88-2.11s.24-1.78,1.31-1.9a11.61,11.61,0,0,1,2.63.51c.2,0,.46-.08.66-.07s.53.22.73.22a8,8,0,0,0,.8-.22c.32-.06.69,0,.88-.07.54-.2.73-.85,1.16-1.39.18-.22.48-.41.65-.66s.25-.63.44-.8a4.49,4.49,0,0,1,2.7-.73,2.55,2.55,0,0,1,1.53,1.1,4.37,4.37,0,0,1-.95,4.37c.27.75,1.15.42,1.83.37,1.49-.13,2.36-.05,3.35-.73a12.2,12.2,0,0,0,1.46-1.61c.44-.46,1.07-1.47,1.68-1.31,1,.26-.06,2,.08,3,.33.54,1,.49,1.45.44A5.43,5.43,0,0,0,242,30.84c.32-.52.5-1.35.87-2s1-1.21,1.17-1.61a6.23,6.23,0,0,0,.37-1.82,1.12,1.12,0,0,0-.87-.8c-.27,0-.53.2-.95.29s-.86,0-1.09.07-.45.32-.87.44c-.7.19-1.36.15-2,.29s-1.53.53-1.82,0c-.5-.92,1.67-1.66,2-2.12.64.15,1.09-.42,1.75-.58.81-.2,1.78-.12,2.62-.37.33-.09.61-.41.95-.51s.62,0,.88-.07c.55-.17,1-.76,1.46-.88,1-.22,2.38.18,3.43-.07.45-.1.81-.49,1.17-.58a7.8,7.8,0,0,1,.8,0,10.36,10.36,0,0,0,1.31-.51,16.63,16.63,0,0,1,2.62-.44c1.25-.11,2.57.11,2.63,1.09a2.42,2.42,0,0,1-1.24,1.75,7.32,7.32,0,0,1-.8,0c-.41.05-.79.35-1.24.44s-1.18,0-1.75.15c-.42.08-.81.38-1.16.44s-.66-.06-1,0-.63.38-1,.44c-.69.13-1.42-.26-1.82-.22-1.39.13-1.54,2.3-1.75,3.79a5.84,5.84,0,0,0,.07,2.19c.19.93,1,1.45,1.6,2.19s1.14,2,1.75,2.19A1.89,1.89,0,0,0,252,33.1a12.53,12.53,0,0,0,.07-2c.3-1.7,1.07-3.7,2.55-4.3,1.28-.52,3.15-.15,3.35,1.38,0,.37-.13.58-.22,1s0,.88-.07,1.17c-.24.8-1.33,1.21-1.31,2a1.12,1.12,0,0,0,.8.8c.31,0,.8-.4,1.17-.51a11,11,0,0,1,1.09-.15,6,6,0,0,0,2.63-1.9c.51-1,0-2.45.95-2.92a5,5,0,0,1,2.4-.07c1.7.43,2.15,2.12,1.75,4-.08.35-.38.62-.29,1,.32,1.45,3.1,0,3.72-.15s1.32-.05,1.82-.22a5.64,5.64,0,0,0,1.31-.66c.49-.34.85-1,1.46-1.31.21-.09.62-.06,1-.15.55-.15.87-.48,1.24-.43,1.18.14.8,2.27.43,2.77a4.22,4.22,0,0,1-1.09.73,10.72,10.72,0,0,1-1.09.73,18.92,18.92,0,0,1-2.48.44c-.36.08-.65.44-1.09.58a25.57,25.57,0,0,1-4.08.51c-1.57.18-3.17.8-3.57-.8a5.84,5.84,0,0,1,0-1.46c.12-.83,1.25-2.93.44-3.21s-1.08.66-1.31,1.17"/><path class="cls-2" d="M143.37,30a4.09,4.09,0,0,0,1.31,3.14c2.24.49,2-1.56,3.28-1.53.57,0,1.26,1,1.17,1.82s-.74.95-1.17,1.39c-.68.71-1.1,1.52-2.7,1.46-.26,0-.49-.17-.8-.22-1.09-.16-2,.09-2.55-.51s-.57-1.82-1.1-1.82c-.3,0-1.45,1.51-1.68,1.75a13,13,0,0,1-1.68,1.68c-1.21.06-1.66,1.19-2.7,1.24-2,.1-1.44-2.52-2.77-3.43-.51.18-1.07.12-1.6.29-.29.09-.55.39-.87.51s-.55.06-.8.15a6.34,6.34,0,0,1-2.77.8c-.28,0-.5-.18-.8-.22-.72-.09-1.55.11-2,0a2.55,2.55,0,0,1-1.46-1.39c-.07-.5.28-.72.51-1.24s.22-1,.66-1.31c.17-1,.91-2.72,1.61-3.07a3.66,3.66,0,0,1,2.63.22,10.81,10.81,0,0,1,.65,1.68c.12.63,0,1.61.73,1.75.5.09,1.29-.38,2-.44.43,0,.82.06,1.09,0,.83-.18,1.53-1.09,2.55-.66,1.21.45.52,2.63,1.9,2.77,1,.1,2.39-1.84,2.84-2.63.28-.48.3-1,.51-1.46s.88-.95.95-1.38-.14-.73-.07-1.09c.11-.59.7-1,.88-1.46.09-.25.07-.59.14-.87s.29-.57.29-.8a3.64,3.64,0,0,0-.44-1.31c-.38-.71-1.37-1-1.17-2,1.13-.76,2.82-.15,3.57.51.19.71.54,1.37.73,2.12.14.56,0,1.17.29,1.6.72,1.11,2.52-.13,3.79.36,1.37-.47,3.6-.59,3.5,1.17a2.67,2.67,0,0,1-1.17,1.68c-.24.09-.52,0-.88,0s-.57.2-.8.22c-1.86.15-4.46-.9-5.61.58"/><path class="cls-2" d="M113.61,34.71c-.9.12-1.76-1.64-.95-2.48.46-.35,1.35-.68,1.53,0,.08.28-.22.53-.22.88,0,.53.48,1.49-.36,1.6m-2.33-4.45c-.86-.18-.29-2.39,0-3,.39-.81,1.2-1.91,1.82-2,.27-.06.86-.15,1,.36.11.36-.16.58-.22.95a4.15,4.15,0,0,1-1.24,2.41c-.36.43-1,1.39-1.38,1.31m-9.48.15c-.77-1,.38-2.55.66-3.43.56-.29,1.67-.77,1.89,0a4.57,4.57,0,0,1-.73,2.33,3.57,3.57,0,0,1-1.82,1.09m-14.3.44c-.91,0-1.81,1-2.4.07l.8-2.7a3.21,3.21,0,0,1,2.55-.95c1.39,1-.36,2.74-1,3.58m0,4.67c-.29,0-1.16-.43-1.09-1.09s1-.74,1.46-1.39c.15-.51.12-.93.51-.95,1.14-.05.13,3.33-.88,3.43m27.86-4.45c-1-1.84.88-3.52.87-5.32A4.1,4.1,0,0,0,115.14,23a3.35,3.35,0,0,0-2.55-.66c-.43.09-.87.65-1.39,1.17a8.56,8.56,0,0,0-2.11,3.58c-.13.34-.34.67-.44,1-.33,1.17.12,2.72-.22,4.08-.16.66-.88.95-1.39,1.31-.67.49-.71.36-1.68.51-.74.12-1.47.78-2,.29a5.31,5.31,0,0,1-.36-1.83c1-.75,2.66-1.63,3.06-3.06.12-.44,0-1,.08-1.53a9.42,9.42,0,0,0,.44-1.9A2.83,2.83,0,0,0,105,24.35a3.59,3.59,0,0,0-1.9.07c-1.41.17-1.36.68-2.26,1.61-.27.28-.62.43-.8.65-1.29,1.59-.8,4-1,6.42a9.93,9.93,0,0,1-2.41,1.24c-.25,0-.51-.06-.73,0s-.58.49-.95.44-.76-.73-1-1c-1.06-1.17-2.43-2-3.14-3.14.36-.51.18-1.22.29-1.9.07-.46.42-.82.44-1.24a5,5,0,0,0-.66-2c-2.46-1.61-5.21.11-6.49,1.68-1.08,1.33-1.49,1.74-1.6,3.5-.24,1.11-1.88,1.65-1.9,2.7,0,1.77,2.59,1.71,3.06,2.84.13.31,0,.72.14,1A4.44,4.44,0,0,0,86,39c2.32.48,3.6-1.5,3.79-3.14.88-.88,2.33.05,1.82,1.46.53,1.31,2.23,1.07,3.5.58.8-.31,1.7-1.39,2.34-1.61.23-.08.52,0,.73-.07.73-.21,1-.82,1.6-1,1.27.13,1.77,1.79,3.06,2a12,12,0,0,0,1.9-.15c.22,0,.48.11.65.07.39-.08.7-.54,1.24-.73.21-.08.49,0,.73-.07s.54-.47.88-.58a2.68,2.68,0,0,1,1-.14c1,.08,1.43,1.73,2.26,1.89a5.52,5.52,0,0,0,1-.15c.55,0,1.25.09,1.68,0,.13,0,.43-.23.73-.36a5.75,5.75,0,0,0,2.41-1.9,4.91,4.91,0,0,0,.73-2c-.06-.89-1.48-2.59-2.77-2.12"/><path class="cls-2" d="M86.73,44.87h-4v3.43h3.77V49.5H82.71v3.77H81.39V43.71h5.48Z"/><path class="cls-2" d="M92.38,53.36l-.08-.76a2.81,2.81,0,0,1-2,.8c-1.22,0-2-.62-2-2.3v-4L89.53,47v4c0,1.05.52,1.29,1.2,1.29a2.11,2.11,0,0,0,1.5-.73V47.16L93.49,47v4.92a8.06,8.06,0,0,0,.13,1.29Z"/><path class="cls-2" d="M99.48,53.26V49.48c0-1.16-.62-1.46-1.27-1.46a2.49,2.49,0,0,0-1.48.53v4.71H95.46V47.14L96.68,47v.7a2.73,2.73,0,0,1,1.89-.8c1.3,0,2.17.63,2.17,2.37v4Z"/><path class="cls-2" d="M107.18,53.35l-.08-.76a2.4,2.4,0,0,1-1.86.81,2.76,2.76,0,0,1-2.76-3.07,3.18,3.18,0,0,1,3.1-3.37,4.45,4.45,0,0,1,1.4.18V43.4l1.26-.14v8.53a11.32,11.32,0,0,0,.13,1.47Zm-.21-5a2.16,2.16,0,0,0-1.16-.29,1.94,1.94,0,0,0-2,2.17c0,1.44.73,2.13,1.79,2.13a1.79,1.79,0,0,0,1.36-.66Z"/><path class="cls-2" d="M114,53.4l-.24-.69a3.84,3.84,0,0,1-2,.69,1.55,1.55,0,0,1-1.64-1.62,1.92,1.92,0,0,1,1-1.67l2.47-.21v-.84c0-.74-.35-1-1.05-1a3,3,0,0,0-1.67.6l-.35-.9a3.52,3.52,0,0,1,2.38-.81c1.09,0,1.89.5,1.89,2,0,.2,0,2.42,0,2.59a2.91,2.91,0,0,0,.14.66l.29.92ZM111.51,51a1.5,1.5,0,0,0-.15.57.77.77,0,0,0,.85.88,3.21,3.21,0,0,0,1.36-.46V50.74Z"/><path class="cls-2" d="M119.61,53.4a2.93,2.93,0,0,1-3-3.24,3,3,0,0,1,3.14-3.24,4.57,4.57,0,0,1,1.95.41l-.35,1.11a3.38,3.38,0,0,0-1.54-.39c-1,0-1.86.66-1.86,2.16a1.88,1.88,0,0,0,1.89,2.07,2.39,2.39,0,0,0,1.65-.71l.52.87A3,3,0,0,1,119.61,53.4Z"/><path class="cls-2" d="M122.77,57l-.6-.84a2.76,2.76,0,0,0,1.36-2.55v-6.5l1.26-.1v6.67A3.36,3.36,0,0,1,122.77,57Zm1.37-11.63a.66.66,0,0,1-.66-.69.65.65,0,0,1,.66-.67.68.68,0,0,1,.69.67A.69.69,0,0,1,124.15,45.4Z"/><path class="cls-2" d="M130.6,53.4l-.24-.69a3.84,3.84,0,0,1-2,.69,1.55,1.55,0,0,1-1.64-1.62,1.92,1.92,0,0,1,1-1.67l2.47-.21v-.84c0-.74-.35-1-1.05-1a3,3,0,0,0-1.67.6l-.35-.9a3.52,3.52,0,0,1,2.38-.81c1.09,0,1.89.5,1.89,2,0,.2,0,2.42,0,2.59a2.91,2.91,0,0,0,.14.66l.29.92ZM128.08,51a1.5,1.5,0,0,0-.15.57.77.77,0,0,0,.85.88,3.21,3.21,0,0,0,1.36-.46V50.74Z"/><path class="cls-2" d="M143.48,53.32l-1.15-3h-3.64l-1.12,3h-1.3L140,43.71h1.15l3.71,9.5ZM140.7,45.9a2.1,2.1,0,0,1-.14-.59h-.07a3.24,3.24,0,0,1-.14.59l-1.22,3.24h2.79Z"/><path class="cls-2" d="M146.42,53.26V43.4l1.26-.14v10Z"/><path class="cls-2" d="M152.64,53.4a4.64,4.64,0,0,1-2.52-.64V43.4l1.26-.14v4.26a2.93,2.93,0,0,1,1.81-.59,2.69,2.69,0,0,1,2.72,3A3.25,3.25,0,0,1,152.64,53.4Zm.08-5.39a2.41,2.41,0,0,0-1.34.48V52a2.7,2.7,0,0,0,1.22.28c1,0,2-.6,2-2.25A1.79,1.79,0,0,0,152.72,48Z"/><path class="cls-2" d="M160.3,53.4a3,3,0,0,1-3.05-3.17,3,3,0,0,1,2.94-3.31,2.23,2.23,0,0,1,2.45,2.33c0,.27,0,.77-.06,1h-4a.35.35,0,0,0,0,.1,1.82,1.82,0,0,0,1.92,1.92,2.61,2.61,0,0,0,1.72-.76l.5.83A3.06,3.06,0,0,1,160.3,53.4Zm1.08-4.29a1.15,1.15,0,0,0-1.23-1.2,1.51,1.51,0,0,0-1.5,1.48h2.73Z"/><path class="cls-2" d="M168,48.25a2.71,2.71,0,0,0-.84-.14c-.5,0-.92.28-1.29,1.08v4.08h-1.26V47.14L165.8,47v1a1.8,1.8,0,0,1,1.79-1.12,1.58,1.58,0,0,1,.52.07Z"/><path class="cls-2" d="M171.79,53.4c-1.2,0-1.95-.59-1.95-2.09v-3.1h-1V47.14h1.06V45.71l1.26-.22v1.65H173v1.08H171.1v2.93c0,.87.34,1.13,1,1.13a2.94,2.94,0,0,0,1.05-.22l.14,1A3.39,3.39,0,0,1,171.79,53.4Z"/><path class="cls-2" d="M178.34,53.4l-.24-.69a3.84,3.84,0,0,1-2,.69,1.55,1.55,0,0,1-1.64-1.62,1.92,1.92,0,0,1,1-1.67l2.46-.21v-.84c0-.74-.35-1-1.05-1a3,3,0,0,0-1.67.6l-.35-.9a3.52,3.52,0,0,1,2.38-.81c1.09,0,1.89.5,1.89,2,0,.2,0,2.42,0,2.59a2.9,2.9,0,0,0,.14.66l.29.92ZM175.82,51a1.5,1.5,0,0,0-.15.57.77.77,0,0,0,.85.88,3.2,3.2,0,0,0,1.36-.46V50.74Z"/><path class="cls-2" d="M187.23,53.4a5.82,5.82,0,0,1-2.84-.7l.42-1.23a4.71,4.71,0,0,0,2.49.76c.92,0,1.71-.49,1.71-1.36,0-2-4.41-2.18-4.41-4.76,0-1.64,1.4-2.56,3.1-2.56a9.44,9.44,0,0,1,2.33.31l-.24,1.26a5.5,5.5,0,0,0-2-.41c-1,0-1.79.34-1.79,1.19,0,1.83,4.44,2,4.44,4.82C190.38,52.34,189.12,53.4,187.23,53.4Z"/><path class="cls-2" d="M194.86,53.4a2.93,2.93,0,0,1-3-3.24A3,3,0,0,1,195,46.93a4.58,4.58,0,0,1,1.95.41l-.35,1.11a3.39,3.39,0,0,0-1.54-.39c-1,0-1.86.66-1.86,2.16A1.88,1.88,0,0,0,195,52.28a2.39,2.39,0,0,0,1.65-.71l.52.87A3,3,0,0,1,194.86,53.4Z"/><path class="cls-2" d="M202.74,53.26V49.48c0-1.16-.62-1.46-1.28-1.46a2.5,2.5,0,0,0-1.48.53v4.71h-1.26V43.4l1.26-.14V47.7a2.69,2.69,0,0,1,1.88-.77c1.27,0,2.14.63,2.14,2.37v4Z"/><path class="cls-2" d="M213.24,53.26H212l-1.27-3.84a3.28,3.28,0,0,1-.15-.62h-.07a3.69,3.69,0,0,1-.18.63l-1.44,3.82h-1.22l-2-6.09L207,47l1.22,4.1a4,4,0,0,1,.13.55h.07a2.85,2.85,0,0,1,.15-.55l1.5-4h1.15l1.32,4a2.79,2.79,0,0,1,.13.55h.07a3.9,3.9,0,0,1,.14-.55l1.37-4h1.33Z"/><path class="cls-2" d="M219.71,53.4a3,3,0,0,1-3.05-3.17,3,3,0,0,1,2.94-3.31A2.23,2.23,0,0,1,222,49.26c0,.27,0,.77-.06,1h-4a.35.35,0,0,0,0,.1,1.82,1.82,0,0,0,1.92,1.92,2.61,2.61,0,0,0,1.72-.76l.5.83A3.06,3.06,0,0,1,219.71,53.4Zm1.08-4.29a1.15,1.15,0,0,0-1.23-1.2,1.51,1.51,0,0,0-1.5,1.48h2.73Z"/><path class="cls-2" d="M224.62,45.4a.67.67,0,0,1-.67-.69.67.67,0,1,1,1.34,0A.68.68,0,0,1,224.62,45.4ZM224,53.26V47.14l1.26-.1v6.22Z"/><path class="cls-2" d="M229.9,53.4c-1.2,0-1.95-.59-1.95-2.09v-3.1h-1V47.14H228V45.71l1.26-.22v1.65h1.83v1.08h-1.88v2.93c0,.87.34,1.13,1,1.13a2.94,2.94,0,0,0,1.05-.22l.14,1A3.39,3.39,0,0,1,229.9,53.4Z"/><path class="cls-2" d="M232.49,53.26l-.06-.85,3.75-4.23h-3.28l-.08-1.09h4.89l.08.84L234,52.17h3.53l.18,1.09Z"/><path class="cls-2" d="M242.12,53.4a3,3,0,0,1-3.05-3.17A3,3,0,0,1,242,46.93a2.23,2.23,0,0,1,2.45,2.33c0,.27,0,.77-.06,1h-4a.35.35,0,0,0,0,.1,1.82,1.82,0,0,0,1.92,1.92,2.61,2.61,0,0,0,1.72-.76l.5.83A3.06,3.06,0,0,1,242.12,53.4Zm1.08-4.29a1.15,1.15,0,0,0-1.23-1.2,1.51,1.51,0,0,0-1.5,1.48h2.73Z"/><path class="cls-2" d="M249.8,48.25a2.71,2.71,0,0,0-.84-.14c-.5,0-.92.28-1.29,1.08v4.08h-1.26V47.14l1.22-.11v1a1.8,1.8,0,0,1,1.79-1.12,1.59,1.59,0,0,1,.52.07Z"/><path class="cls-2" d="M254.78,53.4l-.24-.69a3.84,3.84,0,0,1-2,.69,1.55,1.55,0,0,1-1.64-1.62,1.92,1.92,0,0,1,1-1.67l2.46-.21v-.84c0-.74-.35-1-1.05-1a3,3,0,0,0-1.67.6l-.35-.9a3.52,3.52,0,0,1,2.38-.81c1.09,0,1.89.5,1.89,2,0,.2,0,2.42,0,2.59a2.9,2.9,0,0,0,.14.66l.29.92ZM252.26,51a1.5,1.5,0,0,0-.15.57.77.77,0,0,0,.85.88,3.2,3.2,0,0,0,1.36-.46V50.74Z"/></g></g></svg>